<?xml version="1.0" encoding="UTF-8"?>
<!-- Created with Inkscape (http://www.inkscape.org/) -->
<svg width="48mm" height="48mm" version="1.1" viewBox="0 0 48 48" xmlns="http://www.w3.org/2000/svg"><g fill="#f00" stroke="#f00" stroke-width=".61163"><path transform="scale(.26458)" d="m94.846 91.685c-0.003865-2.1382-0.17934-8.553-0.38995-14.255-0.31515-8.5322-0.36993-11.916-0.30954-19.115l0.07339-8.7474 0.63876-2.1577c0.35132-1.1867 0.74018-2.3895 0.86413-2.6728s1.2841-1.894 2.5782-3.5794c2.4963-3.2511 3.061-4.3194 3.7651-7.1227l0.26936-1.0723-1.1706-3.6036c-0.7659-2.3579-1.7463-4.8979-2.8361-7.3475l-1.6655-3.7438-0.50454-3.5796c-0.2775-1.9688-0.50454-3.739-0.50454-3.9339 0-0.34235 0.04135-0.35079 1.2275-0.25053 0.67513 0.05707 1.3426 0.16817 1.4832 0.24688 0.15548 0.08701 0.67508 1.5068 1.3253 3.6213 1.1646 3.787 1.301 4.0548 4.9025 9.619l1.2694 1.9613 1.74 0.81527c4.8772 2.2852 7.3248 3.2093 12.998 4.9072 3.3269 0.99567 11.131 3.1942 11.403 3.3568 0.0799 0.04763-1.2565 0.21991-1.7819 0.38285-0.75874 0.23534-1.4381 0.68233-3.304 2.174-3.1341 2.5055-3.4618 2.8378-5.5848 5.6618-2.3074 3.0693-2.77 3.8124-3.6844 5.9186-1.1416 2.6296-1.2378 3.0893-1.436 6.8612-0.16761 3.1909-0.23875 3.6892-1.0662 7.4687-1.5485 7.0732-1.4983 6.9174-3.3961 10.544l-1.7031 3.2542-3.5738 4.2782c-1.9656 2.353-5.1859 6.2335-7.1561 8.6232-1.9703 2.3898-3.7808 4.5766-4.0234 4.8596l-0.44111 0.5146z"/><path transform="scale(.26458)" d="m82.991 91.605c-2.0198-2.0496-5.0565-5.3495-6.7482-7.3332l-3.0758-3.6067-1.7792-3.3588c-2.4666-4.6564-3.3729-6.5041-3.5146-7.1655-0.0668-0.31183-0.62422-2.2435-1.2387-4.2927l-1.1173-3.7257-0.17029-3.4017c-0.15239-3.0441-0.2621-3.8751-1.0435-7.9042-0.70327-3.6261-0.94535-4.5915-1.2437-4.9597-0.81015-0.99983-4.517-5.0505-5.0979-5.5709-0.95309-0.85366-7.3009-5.4574-7.5367-5.466-0.37898-0.01374 1.3079-0.60562 11.049-3.8768 5.3011-1.7801 10.324-3.4832 11.163-3.7846l1.5248-0.548 2.099-2.4116c3.9221-4.5061 3.3981-3.6256 5.3033-8.9127l1.6972-4.7099 1.4579 0.07846c0.80184 0.04315 1.4737 0.09091 1.4931 0.10613 0.01935 0.01522-0.28548 1.8464-0.67739 4.0692l-0.71257 4.0415-5.0129 12.198-0.11695 2.8252-0.11695 2.8252 1.9957 2.7388c1.8042 2.476 2.1705 3.1041 3.8177 6.5457l1.822 3.8068 0.16886 3.4827c0.09658 1.9921 0.13379 6.984 0.08692 11.663-0.09787 9.7714-0.20894 30.347-0.3558 31.033-0.10258 0.47941-0.50274-0.71451-4.1201-4.3852z"/></g><g transform="matrix(.49538 0 0 .49538 -119.09 1.9514)" fill="none" stroke="#000" stroke-width="2.0014"><path transform="translate(192.51 -55.339)" d="m96.227 134.24-18.941 0.0727 0.05837-4.9033-0.29186-6.3626-0.29186-4.3196-0.58373-3.6191-1.3426-3.9693-1.5761-5.3119-6.2447 11.331-1.4579 6.9174-1.787 6.7193-1.8607 4.8432-2.5786 4.4924-2.0819 4.7508-8.178 0.50401 0.66735-6.8968 0.85399-8.3175 1.6366-6.611 3.5826-9.4014 0.91511-4.8082 0.7142-6.1504 0.81722-6.1875 0.35023-3.9693 0.81722-3.6191 0.70047-2.4516 0.46698-3.1521 0.70047-3.2689 0.35024-2.6851v-2.2182l1.5177-2.4517 1.2842-1.2842 2.9186-1.7512 2.6851-0.93396 3.9693-0.93396 5.2535-1.7512 5.1368-1.6344 2.2182-1.0507 0.23349-3.3856-0.35024-4.7866 9.966-0.03371m-0.24765 78.589 18.941 0.0727-0.0584-4.9033 0.29187-6.3626 0.29186-4.3196 0.58372-3.6191 1.3426-3.9693 1.576-5.3119 6.2447 11.331 1.4579 6.9174 1.787 6.7193 1.8607 4.8432 2.5786 4.4924 2.0819 4.7508 8.178 0.50401-0.66735-6.8968-0.85399-8.3175-1.6366-6.611-3.5826-9.4014-0.91511-4.8082-0.7142-6.1504-0.81722-6.1875-0.35023-3.9693-0.81722-3.6191-0.70047-2.4516-0.46698-3.1521-0.70047-3.2689-0.35024-2.6851v-2.2182l-1.5177-2.4517-1.2842-1.2842-2.9186-1.7512-2.6851-0.93396-3.9693-0.93396-5.2535-1.7512-5.1368-1.6344-2.2182-1.0507-0.23349-3.3856 0.35024-4.7866-9.966-0.03371"/><path d="m242.87 88.454 6.3152 0.08255 0.41275-4.1276 4.4578-9.9062 0.99062-4.6229-0.57786-3.0957-1.6923-1.94h-1.2795l-1.4446 1.651-1.3208 3.5084-1.6098 4.4991-1.7336 5.4897-1.94 5.9437z"/><path d="m243.41 83.56s0.52535-5.9832 0.52535-6.0999c0-0.11674 0.35024-4.699 0.35024-4.699l1.7804-7.5884 1.3134-3.6483s0.6421 0.35023 0.67128 0.49617c0.0292 0.14593 0.81722 1.4885 0.81722 1.4885l0.17512 2.51-0.8464 2.4808s-2.0722 6.6545-2.1306 6.7712c-0.0584 0.11675-1.2258 3.2397-1.2258 3.2397z"/><path d="m247.88 59.978 0.0584 1.4301 0.72966 0.40861 1.5761-2.3641s1.1383-3.765 1.2258-3.8818c0.0876-0.11675 0.96315-1.5177 0.96315-1.5177h0.99234l0.46698 0.78803-0.17512 2.1306-1.255 4.1736-0.20431 2.043 0.46699 0.49617 1.4593-0.20431 3.0938-1.9847 3.4148-2.977 1.6344-1.9263 3.0354-7.0631-0.20432-0.99233-2.3057-4.9909-0.87559-3.1229-0.87559-4.8449-0.32105-4.1153 0.0876-0.99234-1.1966 0.6421-3.9693 2.3933-3.1813 2.51-1.255 1.0799"/><path d="m251.53 35.607 3.6775-3.0937 4.6114-2.8019 7.1215-2.6268 4.0277-2.6268 0.99235-2.51-1.5177-2.6851-6.3626-3.7358-3.8526-0.70047"/><path d="m262.39 37.067 2.7435 1.3426s3.5607 0.75884 3.7942 0.75884c0.23347 0 4.4363-0.40861 4.9617-0.35023 0.52533 0.05837 1.9847-0.6421 1.9847-0.6421s-2.2182-1.6928-2.6268-1.8096c-0.40859-0.11675-7.2966-4.5531-7.2966-4.5531l-2.7435-1.2258-1.2258-0.46698-0.29187 3.6775 0.17512 1.3426z"/><path d="m264.72 29.303 3.1521-1.1675s2.1014-0.87559 2.3933-1.0507c0.29189-0.17512 1.6344-1.7512 1.6344-1.7512l0.75885-1.2258 0.64209 5.954 0.75885 3.0354 1.3426 3.1521-0.36792 0.11715-4.7105-3.6779z"/><path d="m269.97 73.374 3.5607-1.5177 2.1014-0.70047-4.3196-7.6468-2.1598-1.8096"/><path d="m276.92 70.456s-1.9263-3.0937-2.1014-3.444c-0.17513-0.35023-4.0861-5.6621-4.0861-5.6621l-2.1014-2.1598-1.6928-8.4057-1.8096-4.5531-2.2182-7.0047-0.40861-1.4009 3.5607 2.1598s5.3703 0.23349 6.2459 0.29186c0.87559 0.05837 5.02-0.52535 5.02-0.52535l4.9617 6.5961 4.0277 3.444 0.70049 0.40861-1.5177 6.421-4.7282 9.865-3.1521 3.911z"/><path d="m264.31 14.593s4.8449-1.8096 5.1952-1.8679c0.35023-0.05837 9.865-3.3272 9.865-3.3272l2.7435-3.1521 1.5761-4.3196 0.40859-1.2842 2.9186 0.11675 0.58372 0.6421-0.87559 5.02-2.6852 6.5377-0.0584 2.3933 1.9847 2.7435 2.043 4.2612 0.17512 3.6191-0.0584 9.865-0.29186 10.799-0.53943 2.7482s-0.86152-0.99702-0.97828-1.2305c-0.11673-0.23349-3.8526-3.911-3.8526-3.911s-3.7942-4.3779-3.911-4.6114c-0.11673-0.23349-2.8019-5.1952-2.8019-5.4287 0-0.23349-1.4009-4.7866-1.4009-4.7866l-0.1751-3.7358-0.87561-4.4363s-2.2182-2.4517-2.3933-2.6851c-0.17513-0.23349-3.911-2.9186-3.911-2.9186z"/><path d="m287.08 78.838c-0.11673-0.23349-4.1518-3.1289-4.1518-3.1289l-4.378-0.93396s-4.3196 0.52535-4.5531 0.70047c-0.23349 0.17512-3.1521 2.1598-3.1521 2.1598l-0.99235 0.81722"/><path d="m281.97 74.775c-0.0584-0.11675-3.8937-3.0254-3.8937-3.0254l-4.6579 1.1867-3.2105 1.8387-0.35023 0.52535 0.71439 2.1183 1.0951-1.0676 2.2473-1.3134 3.9693-0.70047z"/><path d="m290.21 0.84615 1.5891-0.30957 2.0638 0.33021 1.3208 4.2927s2.3527 3.818 2.4559 3.9212c0.10318 0.10319 4.5197 2.0844 5.6548 2.3527 1.1351 0.26829 6.8724 2.1051 7.409 2.3321 0.53661 0.22702 2.167 1.0319 2.2495 1.0732 0.0826 0.04128 0.61913 0.33021 0.61913 0.33021s-3.4878 0.7636-3.6529 0.9287-2.105 1.7129-2.4972 2.0019c-0.39211 0.28893-2.7035 3.4465-2.8068 3.7148-0.10319 0.26829-0.86678 1.8574-0.96997 2.394-0.10318 0.53658-0.22701 3.6323-0.22701 3.7148s-1.2176 5.7786-1.424 6.2533c-0.20638 0.47467-1.7748 3.5291-2.0225 3.8593-0.24768 0.3302-5.6961 6.8105-6.0056 7.2439-0.30956 0.4334-3.4878 4.1482-3.4878 4.1482s-0.51597-2.0638-0.49533-2.1876c0.0206-0.12383 0.0206-4.3133 0.0206-4.4371 0-0.12382-0.41275-11.083-0.41275-11.083s0.0826-3.591 0.10319-3.7354c0.0206-0.14446-0.0206-5.5516-0.0206-5.5516s0.78425-2.9718 1.0938-3.3227c0.30956-0.35084 2.167-2.8687 2.3527-3.0544 0.18574-0.18574 0.86681-2.167 0.86681-2.2702 0-0.10319-1.0938-3.3433-1.1557-3.5703-0.0619-0.22702-1.7955-3.9831-1.7955-4.0657 0-0.082552-0.57785-3.8593-0.57785-4.1482 0-0.28893-0.24768-1.1557-0.24768-1.1557z"/><path d="m325.78 35.242c-0.10216-0.08756-4.1445-2.9186-4.305-3.05-0.16052-0.13134-4.5239-2.7727-4.6844-2.8603-0.16052-0.08756-4.9471-1.7512-5.0638-1.7804-0.11674-0.02919-4.1153-2.2036-4.1445-2.2619-0.0292-0.05837-1.3718-2.0868-1.3718-2.3495 0-0.26268-0.18971-2.0722 0.10215-2.2765 0.29186-0.2043 1.5469-1.9263 1.795-2.0868 0.2481-0.16052 3.911-2.583 4.0569-2.6997 0.14592-0.11674 2.0576-0.53995 2.51-0.62751 0.45239-0.08756 3.05-0.29186 3.05-0.29186"/><path d="m300.56 70.339s1.5177-1.6928 1.6928-1.9263c0.1751-0.23349 3.2688-5.2535 3.444-5.487 0.17512-0.23349 3.1521-3.5607 3.1521-3.5607l2.3933-9.1061 3.2689-9.2229 0.52536-3.0354s-2.3933 1.5177-2.6852 1.6344-4.1445 0.75884-4.1445 0.75884l-5.0784-0.58373-2.3933-0.23349s-3.0938 3.6191-3.2105 3.911c-0.11676 0.29186-3.2689 3.3856-3.6191 3.6191-0.35025 0.23349-2.977 3.2105-2.977 3.2105s0.0584 2.6851 0.11674 3.1521c0.0584 0.46698 1.9263 4.1445 1.8679 4.5531-0.0584 0.40861 2.6852 5.8956 2.9186 6.2459 0.23349 0.35023 2.2182 3.7358 2.4516 4.0277 0.2335 0.29186 2.2766 2.043 2.2766 2.043z"/><path d="m307.45 73.55-4.6114-2.3933-0.81721-0.17512s1.6928-3.0937 2.2182-3.8526c0.52535-0.75884 4.2028-6.0708 4.2028-6.0708"/><path d="m290.87 78.628 2.2182-1.8679 2.8602-1.2842s3.5024-0.70047 4.0277-0.58373c0.52535 0.11674 3.2105 0.70047 3.2105 0.70047l2.977 1.7512 1.5177 1.3426"/><path d="m307.51 77.577s-2.5684-1.9847-2.8019-2.043c-0.23347-0.05837-5.0784-1.2258-5.0784-1.2258l-3.2689 0.58373-2.5775 1.616 3.8617-2.6667s4.4702-1.3118 5.1952-1.1675c0.28625 0.057 2.977 0.75884 3.2688 1.0507 0.29189 0.29186 1.4593 1.1675 1.4593 1.1675"/><path d="m302.43 36.425c0.46699-0.29186 2.2765-2.2182 2.8603-2.4517 0.58372-0.23349 5.7789-3.3856 5.7789-3.3856l2.51-1.1091-5.02-1.8096-2.977-2.8019-0.46699-0.46698s-0.23349 3.6191-0.35023 3.8526c-0.11676 0.23349-0.75885 3.5607-0.81722 3.7942-0.0584 0.23349-1.5177 4.3779-1.5177 4.3779z"/><path d="m302.31 38.059s3.2105 0.93396 3.6191 0.99234c0.4086 0.05837 4.2028-0.23349 4.5531-0.23349s4.7282-1.2842 4.7282-1.2842 0.87559-4.2028 0.93398-4.4363c0.0584-0.23349-0.2335-2.977-0.2335-2.977s-4.1445 1.9263-4.4947 2.1598c-0.35026 0.23349-9.1061 5.7789-9.1061 5.7789z"/><path d="m326.13 36.658s-3.3272-2.6268-3.7942-2.8603c-0.46699-0.23349-5.1952-3.1521-5.1952-3.1521s-0.46699 5.954-0.52536 6.2459c-0.0584 0.29186-1.9263 6.9463-1.9263 6.9463l-2.1598 5.2535 2.6268 6.4794 1.9263 3.8526s3.5024 2.4516 3.7358 2.51c0.23349 0.05837 4.5531 1.8096 4.5531 1.8096l0.46696-1.5177-0.99232-2.7435-0.87558-3.7942 0.40859-1.6344 1.2842 0.17512 1.5177 3.3272 0.87559 3.1521 1.1091 0.93396 1.1675 0.11674"/><path d="m330.33 61.992s-1.2258 0.46698-1.2842 0.87559c-0.0584 0.40861-0.64209 3.0937-0.52536 3.3856 0.11677 0.29186 1.4593 4.9033 1.6344 5.1952 0.17513 0.29186 2.1598 5.3703 2.2765 6.0124 0.11676 0.6421 1.5177 5.2535 1.5177 5.2535l0.46697 1.4009s-0.17511-4.0277-0.11674-4.3196c0.0584-0.29186-0.46699-5.1368-0.46699-5.1368l-0.11673-2.2765"/><path d="m328.7 89.369-0.29186-3.6191s-1.7512-6.1291-1.9847-6.5377c-0.23349-0.40861-2.3933-4.4363-2.51-5.1368-0.11676-0.70047-1.1091-4.6114-1.1091-4.9033 0-0.29186 1.4009-3.3272 1.4009-3.3272l1.9847-1.5177s0.93395 1.6928 1.1674 2.1598c0.23349 0.46698 2.4516 6.0708 2.6852 6.7129 0.23347 0.6421 1.9263 6.1875 2.1598 7.0047 0.2335 0.81722 1.9847 5.3703 2.0431 5.6038 0.0584 0.23349 1.0507 3.911 1.0507 3.911l0.11676 0.29186"/></g></svg>
