<?xml version="1.0" encoding="UTF-8"?>
<!-- Created with Inkscape (http://www.inkscape.org/) -->
<svg width="48mm" height="48mm" version="1.1" viewBox="0 0 48 48" xmlns="http://www.w3.org/2000/svg"><g fill="#f00" stroke="#f00" stroke-width=".57405"><path transform="scale(.26458)" d="m55.109 167.12c-1.893-1.8592-1.878-6.0524-2.2819-7.7531-0.50298-2.1178-2.4939-8.7817-2.7839-9.318-0.22642-0.41876-0.08576-0.79021-1.5615 4.1235-0.93012 3.097-0.59021 4.7603-2.0145 7.388-2.7199 5.0182-5.9732 6.7105-7.2705 4.966-0.46569-0.62627-0.03088-1.5419-0.28403-13.23-0.14376-6.6372-0.32923-13.586-0.41218-15.442-0.1366-3.0565-0.05172-4.2969 0.90136-13.172 0.95464-8.89 1.1173-9.9787 1.7552-11.745 0.70531-1.9535 1.335-2.8344 2.9423-4.1161l0.8018-0.63937 2.1371 0.31734c1.7398 0.25835 2.334 0.4555 3.1962 1.0605 0.58252 0.40872 1.146 0.80361 1.2522 0.87753 0.10619 0.0739 0.71436 2.0842 1.3515 4.4672s1.2359 4.4733 1.3306 4.645c0.11055 0.20048 0.48304-0.49639 1.0408-1.9472 0.47776-1.2427 1.0351-2.6911 1.2386-3.2187 0.20348-0.52761 0.92961-1.6358 1.6136-2.4627l1.2436-1.5034h4.6503l2.1047 2.343c1.8773 2.0899 2.1565 2.5167 2.5844 3.9517 0.47752 1.6012 0.47794 1.6326 0.09037 6.6486l-0.38941 5.0399-5.356 18.212c-5.1267 17.433-6.2163 20.86-6.6801 21.015-0.11488 0.0383 2.3831 3.0124 2.0065 2.6426z"/><path transform="scale(.26458)" d="m127.61 168.1c-0.0734-0.22641-0.50682-2.3852-0.9285-4.1236s-2.0189-7.181-3.5494-12.095c-1.5305-4.9139-3.8164-12.749-5.0798-17.411-1.9981-7.3729-2.3412-8.9085-2.6362-11.798-0.42223-4.1361-1.4753-4.3938-0.38949-7.0468 0.81346-1.9876 2.1076-2.8809 3.5022-3.9517l1.4885-1.143h4.4898l3.0214 1.3896c1.7687 0.8135 0.67014 2.3591 2.0364 4.8254 0.90724 1.6377 1.7239 2.8937 1.8149 2.7912 0.0909-0.10253 0.3409-1.9161 0.55546-4.0301 0.37909-3.7351 0.41398-3.882 1.2352-5.2014 0.80241-1.2891 0.9162-1.377 2.2517-1.7388 1.3995-0.3792 1.4161-0.37798 3.2733 0.24054 1.7408 0.57974 1.9301 0.70753 2.8072 1.8947 0.90869 1.23 0.98886 1.4883 2.3739 7.6456l1.4334 6.3726 0.58572 37.47-0.23626 2.6694c-0.19237 2.1736-1.2835 2.0986-2.0729 2.1908-0.74162 0.0866-0.8902-0.57971-1.8676-1.7547-2.7947-3.3582-2.8364-2.041-5.2312-7.7445-1.2962-3.0869-2.7166-7.5837-2.8066-7.6829-0.09-0.0992-0.60612 2.3234-1.147 5.3835-0.88166 4.9884-1.1099 5.881-2.2065 8.6306-1.4741 3.696-2.0732 6.2062-2.7176 4.2174z"/></g><g transform="matrix(.45694 0 0 .45694 -107.62 -35.427)" fill="none" stroke="#000" stroke-width="1.4335"><path d="m269.62 79.095-2.6851 11.675-4.3196 12.55-2.3933 11.499s-1.6344 12.55-1.5177 12.784 0.11674 6.3042 0.11674 6.3042l-0.52535 8.9894-1.3426 12.258s0.17512 5.1952 0.17512 5.4286 0.29186 12.959 0.29186 12.959l-0.17511 7.2382 10.799 0.23349 1.6344-7.8219 2.6852-9.1645 3.3272-10.799 1.2258-7.0631 1.1675-6.3042 4.0277-10.04 2.8602-8.1722 3.0938-15.702 0.75882-8.464 1.8096 14.185 3.9693 15.761 4.9617 11.966 1.6636 5.6767 0.51075 5.4724 2.5538 9.5147s3.3856 10.857 3.444 11.091c0.0584 0.23349 1.8679 7.8219 1.8679 7.8219l0.2335 2.51 10.916 0.11674 0.0584-13.601-0.23347-18.271-1.4593-8.3473-0.29186-15.119-1.5177-12.959s-2.9186-11.675-3.0354-12.083c-0.11676-0.40861-3.7942-13.192-3.7942-13.192l-2.6851-9.0478z"/><path d="m287.08 79.27 1.2842 1.8096 0.4086 6.0124-0.58373 9.1061-1.7512 3.0938-3.7359 1.8095s-4.9033-0.40861-5.1952-0.40861c-0.29189 0-6.5378-2.3933-6.5378-2.3933s-2.2182-3.7942-2.3349-4.0861c-0.11676-0.29186-0.75885-5.8373-0.75885-5.8373l-0.17513-0.93396"/><path d="m258.47 141.03s1.7512-3.1521 2.043-3.3856c0.29187-0.2335 3.6775-3.3856 3.6775-3.3856s3.444-1.8096 3.7942-2.2765c0.35026-0.46698 2.51-3.7358 2.51-3.7358s0.81722-1.9263 0.70049-1.4009c-0.11676 0.52535 0.11673 5.8373 0.11673 5.8373l2.6268 3.7942 1.6928 3.8526 0.99232 3.5024 0.2335-5.8956s2.3933-7.9387 2.5684-8.1722c0.17512-0.23349 2.8603-7.1215 2.8603-7.1215s2.3349-8.2306 2.3349-8.464 0.70048-6.5377 0.70048-6.7712-1.2842-4.7282-1.2842-4.7282l-1.0507-1.0507s-6.4794-0.40861-6.888-0.40861c-0.40859 0-4.1444-0.35024-4.1444-0.35024l-2.977 5.02-4.2612 9.7482s-3.6775 10.624-3.6775 10.857-1.4593 5.6622-1.4593 5.6622l-0.75885 3.1521"/><path d="m257.48 173.66 0.87559 1.2258s1.2258-0.0584 1.4593-0.11675c0.23349-0.0584 1.6344-1.4009 1.6344-1.4009l2.2182-4.0861 0.75884-2.51s1.0507 3.3856 1.0507 3.8526 1.8679 4.7282 2.1014 4.8449c0.23349 0.11674 1.2842-0.29187 1.2842-0.29187l0.81722-2.1014 6.1291-20.781 0.52536-6.3042-0.64209-2.2182-2.7435-3.0354h-3.5023l-1.6928 1.9847-0.70046 1.8096-0.93395-3.444-1.7512-1.2842-3.2105-0.46698-2.043 1.9263-0.93482 2.3575"/><path d="m290.75 79.208-1.1144 1.6923s0.0413 2.6416 0.0413 3.1782c0 0.53658 0.12382 10.278 0.12382 10.443 0 0.1651 0.41275 2.4765 0.61915 2.7655 0.20638 0.28893 2.3114 2.5178 2.848 2.7655 0.5366 0.24766 4.2514 0.66041 4.6229 0.61914 0.37147-0.0413 6.2326-0.90807 6.5216-1.1144 0.28895-0.20638 3.0131-2.2289 3.0957-2.394 0.0826-0.1651 1.8987-4.8293 1.8987-4.8293l0.20638-4.5816 0.0825-1.94"/><path d="m318.9 135.22c-0.12385-0.41276-2.1876-9.287-2.1876-9.287s-0.61912-2.4765-0.61912-2.7242c0-0.24765-3.0544-7.3883-3.0544-7.3883s-3.7974-8.9156-4.0038-9.3283c-0.20637-0.41276-2.7654-4.9531-2.9306-5.1182-0.1651-0.1651-2.0225-0.78423-2.7242-0.45403-0.70171 0.33021-3.7561 0.90806-4.0038 0.94934-0.24765 0.0413-5.0356 0.12383-5.0356 0.12383s-1.6098 3.6735-1.5685 3.8386c0.0413 0.1651-0.12383 5.985-0.0413 6.1501 0.0825 0.1651 1.5272 8.1313 1.5272 8.1313s2.7655 6.439 2.9719 6.893c0.20637 0.45403 2.3527 6.5216 2.3527 6.5216l1.6098 7.0994 0.0413 2.7242s1.5685-4.8293 1.651-5.0356c0.0826-0.20638 2.4766-3.9625 2.4766-3.9625l0.86678-1.6923s0.2064-3.9625 0.2064-4.1276c0-0.16511-0.0413-1.6098 0-1.4446s2.6416 4.1688 2.6416 4.1688l3.137 2.6004 3.9212 2.8893 2.848 3.0957"/><path d="m308.49 174.51s0.6604 1.1557 1.197 1.1144c0.53657-0.0413 1.197-0.86679 1.2795-1.0319 0.0826-0.16511 1.4034-3.4672 1.4446-3.6323 0.0413-0.16511 0.74298-4.1276 0.74298-4.1276l1.8987 4.499s2.5178 3.3846 2.8893 3.4259c0.37147 0.0413 1.8161-0.20638 1.8161-0.20638l0.6604-2.0225 0.3715-0.82551-0.3715-22.124-1.6923-7.5122-1.2795-1.8161s-2.5178-0.86679-2.6829-0.86679-2.1876 0.45404-2.2702 0.70169c-0.0825 0.24766-0.9906 1.4859-1.0732 1.7748-0.0825 0.28893-0.3302 2.6416-0.3302 2.6416l-0.94935-1.6923-2.2289-2.0638-3.2608 0.0413-2.0225 1.5685-0.9906 2.394-0.28895 1.1557"/></g></svg>
