<?xml version="1.0" encoding="UTF-8" standalone="no"?>
<!-- Created with Inkscape (http://www.inkscape.org/) -->

<svg
   width="48mm"
   height="48mm"
   viewBox="0 0 48 48"
   version="1.1"
   id="svg1"
   sodipodi:docname="lower-body-back-glutes.svg"
   inkscape:version="1.4 (e7c3feb100, 2024-10-09)"
   xmlns:inkscape="http://www.inkscape.org/namespaces/inkscape"
   xmlns:sodipodi="http://sodipodi.sourceforge.net/DTD/sodipodi-0.dtd"
   xmlns="http://www.w3.org/2000/svg"
   xmlns:svg="http://www.w3.org/2000/svg">
  <sodipodi:namedview
     id="namedview1"
     pagecolor="#ffffff"
     bordercolor="#cccccc"
     borderopacity="1"
     inkscape:showpageshadow="0"
     inkscape:pageopacity="1"
     inkscape:pagecheckerboard="0"
     inkscape:deskcolor="#d1d1d1"
     inkscape:document-units="mm"
     inkscape:zoom="8.7303591"
     inkscape:cx="95.757802"
     inkscape:cy="49.024329"
     inkscape:window-width="2552"
     inkscape:window-height="1401"
     inkscape:window-x="0"
     inkscape:window-y="0"
     inkscape:window-maximized="1"
     inkscape:current-layer="svg1" />
  <defs
     id="defs1" />
  <g
     inkscape:groupmode="layer"
     id="layer11"
     inkscape:label="Lower Back Body 1">
    <path
       style="fill:#ff0000;stroke:#ff0000;stroke-width:0.574049;stroke-dasharray:none"
       d="m 103.80473,38.245675 c -3.63712,-0.495329 -3.50137,-0.431089 -5.785929,-2.738036 -1.878279,-1.896687 -2.124394,-2.244178 -2.371743,-3.348685 -0.482795,-2.155858 -0.66042,-6.239585 -0.707483,-16.265522 L 94.893742,6.1292702 95.597328,5.1066425 96.300915,4.0840146 105.7655,3.9322661 c 5.20552,-0.083462 11.39313,-0.1518845 13.75024,-0.1520507 l 4.28565,-3.022e-4 0.4866,1.660871 c 0.26762,0.913479 0.94062,3.1666933 1.49555,5.0071428 l 1.00896,3.346272 -0.25611,5.702611 -0.25612,5.702612 -1.57336,4.008998 -1.57336,4.008999 -2.3939,1.79718 c -2.69472,2.023016 -2.43188,1.934034 -8.60222,2.91215 -4.69792,0.744707 -5.09475,0.759895 -8.3327,0.318926 z"
       id="path3"
       transform="scale(0.26458333)" />
    <path
       style="fill:#ff0000;stroke:#ff0000;stroke-width:0.574049;stroke-dasharray:none"
       d="M 76.514607,38.95007 72.16198,38.556407 67.253771,36.694392 c -2.699515,-1.024109 -4.98553,-1.941888 -5.080033,-2.039508 -0.0945,-0.09762 -0.971261,-1.569189 -1.948352,-3.27015 l -1.776528,-3.092656 -0.648763,-5.039884 c -0.356819,-2.771937 -0.662798,-5.400695 -0.679952,-5.841685 -0.01715,-0.440989 0.615559,-3.594445 1.40603,-7.007678 L 59.963394,4.1969523 68.697172,4.0460295 C 73.50075,3.963022 79.812822,3.8949603 82.723999,3.8947814 l 5.293049,-3.253e-4 0.959942,1.3684908 0.95994,1.3684909 0.346084,4.8740932 c 0.328395,4.624948 0.321064,5.266377 -0.143423,12.548462 l -0.489508,7.67437 -1.358377,2.429588 -1.358377,2.429586 -2.976659,1.407599 c -1.637163,0.774176 -3.002035,1.39432 -3.033048,1.378094 -0.03101,-0.01622 -2.01507,-0.206647 -4.409015,-0.42316 z"
       id="path2"
       transform="scale(0.26458333)" />
  </g>
  <g
     inkscape:groupmode="layer"
     id="layer9"
     inkscape:label="Lower Back Body"
     transform="matrix(0.45694175,0,0,0.45694175,-107.61508,-35.42657)"
     style="stroke-width:1.43348;stroke-dasharray:none"
     sodipodi:insensitive="true">
    <path
       style="fill:none;stroke:#000000;stroke-width:1.43348;stroke-dasharray:none"
       d="m 269.62322,79.094927 -2.68512,11.674528 -4.31959,12.550115 -2.39328,11.49941 c 0,0 -1.63443,12.55012 -1.51769,12.78361 0.11674,0.23349 0.11674,6.30425 0.11674,6.30425 l -0.52535,8.98938 -1.34257,12.25826 c 0,0 0.17512,5.19516 0.17512,5.42865 0,0.23349 0.29186,12.95873 0.29186,12.95873 l -0.17511,7.23821 10.79895,0.23349 1.63441,-7.82194 2.68515,-9.1645 3.32724,-10.79894 1.22581,-7.06309 1.16748,-6.30424 4.0277,-10.0401 2.86025,-8.17217 3.09377,-15.70224 0.75882,-8.46403 1.80957,14.18455 3.96933,15.76061 4.96168,11.96639 1.66362,5.67674 0.51075,5.47244 2.55381,9.51474 c 0,0 3.38561,10.85731 3.44398,11.0908 0.0584,0.23349 1.86793,7.82193 1.86793,7.82193 l 0.2335,2.51003 10.91567,0.11674 0.0584,-13.60082 -0.23347,-18.27064 -1.45934,-8.34729 -0.29186,-15.11851 -1.51767,-12.95873 c 0,0 -2.91865,-11.67452 -3.03538,-12.08313 -0.11676,-0.40861 -3.79423,-13.19222 -3.79423,-13.19222 l -2.68513,-9.047758 z"
       id="path44"
       inkscape:label="Outline" />
    <g
       id="g47"
       inkscape:label="Inner"
       style="stroke-width:1.43348;stroke-dasharray:none">
      <path
         style="fill:none;stroke:#000000;stroke-width:1.43348;stroke-dasharray:none"
         d="m 287.07664,79.270044 1.28421,1.809552 0.4086,6.012383 -0.58373,9.10613 -1.75117,3.093752 -3.73586,1.809549 c 0,0 -4.90329,-0.40861 -5.19515,-0.40861 -0.29189,0 -6.53775,-2.393275 -6.53775,-2.393275 0,0 -2.21816,-3.79422 -2.33489,-4.086084 -0.11676,-0.291862 -0.75885,-5.837264 -0.75885,-5.837264 l -0.17513,-0.933963"
         id="path45" />
      <path
         style="fill:none;stroke:#000000;stroke-width:1.43348;stroke-dasharray:none"
         d="m 258.47405,141.0283 c 0,0 1.75118,-3.15212 2.04304,-3.38561 0.29187,-0.2335 3.67748,-3.38562 3.67748,-3.38562 0,0 3.44398,-1.80955 3.79421,-2.27653 0.35026,-0.46698 2.51002,-3.73585 2.51002,-3.73585 0,0 0.81722,-1.9263 0.70049,-1.40094 -0.11676,0.52535 0.11673,5.83726 0.11673,5.83726 l 2.62679,3.79422 1.6928,3.8526 0.99232,3.50235 0.2335,-5.89563 c 0,0 2.39328,-7.93868 2.56839,-8.17217 0.17512,-0.23349 2.86027,-7.12146 2.86027,-7.12146 0,0 2.3349,-8.23055 2.3349,-8.46404 0,-0.23349 0.70048,-6.53773 0.70048,-6.77122 0,-0.23349 -1.28421,-4.72819 -1.28421,-4.72819 l -1.05071,-1.0507 c 0,0 -6.47935,-0.40861 -6.88798,-0.40861 -0.40859,0 -4.14443,-0.35024 -4.14443,-0.35024 l -2.97701,5.02005 -4.2612,9.74823 c 0,0 -3.67748,10.62382 -3.67748,10.85731 0,0.23349 -1.45932,5.66215 -1.45932,5.66215 l -0.75885,3.15212"
         id="path46" />
      <path
         style="fill:none;stroke:#000000;stroke-width:1.43348;stroke-dasharray:none"
         d="m 257.48171,173.6586 0.87559,1.22583 c 0,0 1.22583,-0.0584 1.45932,-0.11675 0.23349,-0.0584 1.63443,-1.40094 1.63443,-1.40094 l 2.21817,-4.08608 0.75884,-2.51003 c 0,0 1.0507,3.38562 1.0507,3.8526 0,0.46698 1.86793,4.72818 2.10143,4.84493 0.23349,0.11674 1.28418,-0.29187 1.28418,-0.29187 l 0.81722,-2.10141 6.12912,-20.78066 0.52536,-6.30425 -0.64209,-2.21816 -2.74352,-3.03538 h -3.50234 l -1.69283,1.98468 -0.70046,1.80955 -0.93395,-3.44399 -1.75119,-1.2842 -3.2105,-0.46698 -2.04304,1.9263 -0.93482,2.35752"
         id="path47"
         sodipodi:nodetypes="ccscccsscccccccccccccc" />
    </g>
    <path
       style="fill:none;stroke:#000000;stroke-width:1.43348;stroke-dasharray:none"
       d="m 290.74596,79.208047 -1.11445,1.692304 c 0,0 0.0413,2.641645 0.0413,3.178228 0,0.536585 0.12382,10.277647 0.12382,10.442749 0,0.165103 0.41275,2.476543 0.61915,2.765473 0.20638,0.28893 2.31143,2.517817 2.84801,2.765469 0.5366,0.24766 4.2514,0.66041 4.62288,0.61914 0.37147,-0.0413 6.23263,-0.908069 6.52155,-1.114447 0.28895,-0.206378 3.01313,-2.228887 3.09568,-2.39399 0.0826,-0.165102 1.8987,-4.829257 1.8987,-4.829257 l 0.20638,-4.581601 0.0825,-1.939957"
       id="path48" />
    <path
       style="fill:none;stroke:#000000;stroke-width:1.43348;stroke-dasharray:none"
       d="m 318.89599,135.21916 c -0.12385,-0.41276 -2.18763,-9.28703 -2.18763,-9.28703 0,0 -0.61912,-2.47654 -0.61912,-2.7242 0,-0.24765 -3.05441,-7.38834 -3.05441,-7.38834 0,0 -3.79737,-8.91555 -4.00375,-9.32831 -0.20637,-0.41276 -2.76545,-4.95308 -2.93058,-5.11819 -0.1651,-0.1651 -2.0225,-0.78423 -2.72417,-0.45403 -0.70171,0.33021 -3.75611,0.90806 -4.00376,0.94934 -0.24765,0.0413 -5.03563,0.12383 -5.03563,0.12383 0,0 -1.60975,3.67354 -1.56847,3.83864 0.0413,0.1651 -0.12383,5.98497 -0.0413,6.15008 0.0825,0.1651 1.5272,8.13131 1.5272,8.13131 0,0 2.76548,6.43901 2.97186,6.89304 0.20637,0.45403 2.3527,6.52156 2.3527,6.52156 l 1.60975,7.09942 0.0413,2.72419 c 0,0 1.56848,-4.82926 1.65103,-5.03563 0.0826,-0.20638 2.47655,-3.96247 2.47655,-3.96247 l 0.86678,-1.6923 c 0,0 0.2064,-3.96247 0.2064,-4.12757 0,-0.16511 -0.0413,-1.60975 0,-1.44465 0.0413,0.1651 2.64163,4.16884 2.64163,4.16884 l 3.13695,2.60037 3.9212,2.8893 2.84803,3.09568"
       id="path49" />
    <path
       style="fill:none;stroke:#000000;stroke-width:1.43348;stroke-dasharray:none"
       d="m 308.49451,174.51362 c 0,0 0.6604,1.15571 1.197,1.11444 0.53657,-0.0413 1.19697,-0.86679 1.27952,-1.03189 0.0826,-0.16511 1.40338,-3.46716 1.44465,-3.63226 0.0413,-0.16511 0.74298,-4.12757 0.74298,-4.12757 l 1.89868,4.49905 c 0,0 2.51782,3.3846 2.8893,3.42588 0.37147,0.0413 1.81613,-0.20638 1.81613,-0.20638 l 0.6604,-2.02251 0.3715,-0.82551 -0.3715,-22.12377 -1.69231,-7.51218 -1.27952,-1.81613 c 0,0 -2.51783,-0.86679 -2.68293,-0.86679 -0.1651,0 -2.1876,0.45404 -2.27018,0.70169 -0.0825,0.24766 -0.9906,1.48593 -1.07315,1.77485 -0.0825,0.28893 -0.3302,2.64165 -0.3302,2.64165 l -0.94935,-1.69231 -2.22887,-2.06378 -3.26078,0.0413 -2.02253,1.56847 -0.9906,2.39399 -0.28895,1.15572"
       id="path50" />
  </g>
</svg>
