<?xml version="1.0" encoding="UTF-8"?>
<!-- Created with Inkscape (http://www.inkscape.org/) -->
<svg width="48mm" height="48mm" version="1.1" viewBox="0 0 48 48" xmlns="http://www.w3.org/2000/svg"><g fill="#f00" stroke="#f00" stroke-width=".40591"><path transform="scale(.26458)" d="m68.776 103.96c-0.76113-2.5277-1.4719-3.1449-3.4167-5.9701l-2.2139-3.2162-0.10658-2.4625c-0.05862-1.3544-0.10658-3.6774-0.10658-5.1623 0-2.6126-0.01211-2.7112-0.37491-3.052-0.44725-0.42017-1.1858-0.45665-1.7166-0.08481-0.20997 0.14707-0.66362 0.87746-1.0081 1.6231-0.34448 0.74563-1.5679 2.7654-2.7188 4.4883-2.3611 3.5349-2.1803 3.3736-6.3109 5.6277-1.8556 1.0126-2.2585 1.3272-5.4074 4.2226-1.8713 1.7206-3.575 3.3823-3.786 3.6925l-0.3837 0.56406 0.01153-0.88804c0.02435-1.8764-0.32294-3.6574 0.70229-7.649 0.58352-2.2719 2.0998-5.5339 2.5995-7.494 1.0038-3.9373 1.3527-5.0357 4.7336-14.903 2.116-6.1757 2.6705-7.5808 6.0093-15.227 3.5288-8.0814 3.7742-8.5845 6.0432-12.392 1.3008-2.1828 2.2309-4.5319 2.312-4.5202 0.57171 0.08243 8.376 1.1833 12.646 1.4371l5.1703 0.30739 0.6014 0.61837c0.55842 0.57417 0.67225 0.87529 1.5927 4.2129 0.5452 1.977 0.99128 3.8277 0.99128 4.1127 0 0.28497-0.25862 2.9682-0.57471 5.9627-0.63602 6.0255-0.41641 5.0112-3.3181 15.326-1.1041 3.9249-1.5966 5.3318-3.6569 10.448-2.7176 6.7486-3.1723 8.0289-5.3506 15.065-1.3581 4.3867-1.5923 5.3105-1.6697 6.5844l-0.11857 2.6272z"/><path transform="scale(.26458)" d="m114.23 106.42c4e-3 -0.1823-0.60126-2.5405-1.2187-5.2579-1.013-4.4586-1.2999-5.4385-2.9405-10.043-1.0778-3.0252-2.9591-7.7736-4.6208-11.663-1.5415-3.6083-3.4261-6.7167-3.488-7.1176-0.0618-0.40092-0.0711-3.7436-0.72046-7.2183l-1.1807-6.3175 0.1684-9.8813 2.2515-5.3767 4.1596-0.1022c3.947-0.09698 4.2907-0.13093 6.7244-0.66418 1.4106-0.30908 3.041-0.72044 3.623-0.91412 1.1462-0.38142 1.9221-0.35913 3.2942 0.09463l0.73457 0.24293 2.3785 4.1766c2.2911 4.023 2.549 4.5755 7.0157 15.023 5.0782 11.878 7.5222 17.744 7.5222 18.056 0 0.44098 4.7336 20.338 4.8727 20.482 0.0819 0.08464 0.14892 1.1042 0.14892 2.2657v2.1118l-1.6604-1.7277c-1.2385-1.2888-2.4629-2.3137-4.8192-4.0342-1.7373-1.2686-4.3441-3.2901-5.7929-4.4922l-2.6342-2.1856-1.7239-2.6874c-0.94815-1.4781-1.9314-3.0009-2.185-3.384-0.2536-0.38311-0.46108-0.76168-0.46108-0.84125 0-0.25368-0.70459-0.64902-1.1567-0.64902-1.2435 0-1.4328 0.4715-1.4439 3.5962-5e-3 1.3631-0.0694 3.4989-0.14333 4.7462l-0.1345 2.2678-0.87913 1.6199c-0.48352 0.89093-1.4614 2.5311-2.1732 3.6447-2.1376 3.3447-2.5476 4.0759-2.9941 5.3389-0.31028 0.87761-0.55651 2.6207-0.55189 2.38z"/></g><g transform="matrix(.45694 0 0 .45694 -107.62 -35.427)" fill="none" stroke="#000" stroke-width="1.4335"><path d="m269.62 79.095-2.6851 11.675-4.3196 12.55-2.3933 11.499s-1.6344 12.55-1.5177 12.784 0.11674 6.3042 0.11674 6.3042l-0.52535 8.9894-1.3426 12.258s0.17512 5.1952 0.17512 5.4286 0.29186 12.959 0.29186 12.959l-0.17511 7.2382 10.799 0.23349 1.6344-7.8219 2.6852-9.1645 3.3272-10.799 1.2258-7.0631 1.1675-6.3042 4.0277-10.04 2.8602-8.1722 3.0938-15.702 0.75882-8.464 1.8096 14.185 3.9693 15.761 4.9617 11.966 1.6636 5.6767 0.51075 5.4724 2.5538 9.5147s3.3856 10.857 3.444 11.091c0.0584 0.23349 1.8679 7.8219 1.8679 7.8219l0.2335 2.51 10.916 0.11674 0.0584-13.601-0.23347-18.271-1.4593-8.3473-0.29186-15.119-1.5177-12.959s-2.9186-11.675-3.0354-12.083c-0.11676-0.40861-3.7942-13.192-3.7942-13.192l-2.6851-9.0478z"/><path d="m287.08 79.27 1.2842 1.8096 0.4086 6.0124-0.58373 9.1061-1.7512 3.0938-3.7359 1.8095s-4.9033-0.40861-5.1952-0.40861c-0.29189 0-6.5378-2.3933-6.5378-2.3933s-2.2182-3.7942-2.3349-4.0861c-0.11676-0.29186-0.75885-5.8373-0.75885-5.8373l-0.17513-0.93396"/><path d="m258.47 141.03s1.7512-3.1521 2.043-3.3856c0.29187-0.2335 3.6775-3.3856 3.6775-3.3856s3.444-1.8096 3.7942-2.2765c0.35026-0.46698 2.51-3.7358 2.51-3.7358s0.81722-1.9263 0.70049-1.4009c-0.11676 0.52535 0.11673 5.8373 0.11673 5.8373l2.6268 3.7942 1.6928 3.8526 0.99232 3.5024 0.2335-5.8956s2.3933-7.9387 2.5684-8.1722c0.17512-0.23349 2.8603-7.1215 2.8603-7.1215s2.3349-8.2306 2.3349-8.464 0.70048-6.5377 0.70048-6.7712-1.2842-4.7282-1.2842-4.7282l-1.0507-1.0507s-6.4794-0.40861-6.888-0.40861c-0.40859 0-4.1444-0.35024-4.1444-0.35024l-2.977 5.02-4.2612 9.7482s-3.6775 10.624-3.6775 10.857-1.4593 5.6622-1.4593 5.6622l-0.75885 3.1521"/><path d="m257.48 173.66 0.87559 1.2258s1.2258-0.0584 1.4593-0.11675c0.23349-0.0584 1.6344-1.4009 1.6344-1.4009l2.2182-4.0861 0.75884-2.51s1.0507 3.3856 1.0507 3.8526 1.8679 4.7282 2.1014 4.8449c0.23349 0.11674 1.2842-0.29187 1.2842-0.29187l0.81722-2.1014 6.1291-20.781 0.52536-6.3042-0.64209-2.2182-2.7435-3.0354h-3.5023l-1.6928 1.9847-0.70046 1.8096-0.93395-3.444-1.7512-1.2842-3.2105-0.46698-2.043 1.9263-0.93482 2.3575"/><path d="m290.75 79.208-1.1144 1.6923s0.0413 2.6416 0.0413 3.1782c0 0.53658 0.12382 10.278 0.12382 10.443 0 0.1651 0.41275 2.4765 0.61915 2.7655 0.20638 0.28893 2.3114 2.5178 2.848 2.7655 0.5366 0.24766 4.2514 0.66041 4.6229 0.61914 0.37147-0.0413 6.2326-0.90807 6.5216-1.1144 0.28895-0.20638 3.0131-2.2289 3.0957-2.394 0.0826-0.1651 1.8987-4.8293 1.8987-4.8293l0.20638-4.5816 0.0825-1.94"/><path d="m318.9 135.22c-0.12385-0.41276-2.1876-9.287-2.1876-9.287s-0.61912-2.4765-0.61912-2.7242c0-0.24765-3.0544-7.3883-3.0544-7.3883s-3.7974-8.9156-4.0038-9.3283c-0.20637-0.41276-2.7654-4.9531-2.9306-5.1182-0.1651-0.1651-2.0225-0.78423-2.7242-0.45403-0.70171 0.33021-3.7561 0.90806-4.0038 0.94934-0.24765 0.0413-5.0356 0.12383-5.0356 0.12383s-1.6098 3.6735-1.5685 3.8386c0.0413 0.1651-0.12383 5.985-0.0413 6.1501 0.0825 0.1651 1.5272 8.1313 1.5272 8.1313s2.7655 6.439 2.9719 6.893c0.20637 0.45403 2.3527 6.5216 2.3527 6.5216l1.6098 7.0994 0.0413 2.7242s1.5685-4.8293 1.651-5.0356c0.0826-0.20638 2.4766-3.9625 2.4766-3.9625l0.86678-1.6923s0.2064-3.9625 0.2064-4.1276c0-0.16511-0.0413-1.6098 0-1.4446s2.6416 4.1688 2.6416 4.1688l3.137 2.6004 3.9212 2.8893 2.848 3.0957"/><path d="m308.49 174.51s0.6604 1.1557 1.197 1.1144c0.53657-0.0413 1.197-0.86679 1.2795-1.0319 0.0826-0.16511 1.4034-3.4672 1.4446-3.6323 0.0413-0.16511 0.74298-4.1276 0.74298-4.1276l1.8987 4.499s2.5178 3.3846 2.8893 3.4259c0.37147 0.0413 1.8161-0.20638 1.8161-0.20638l0.6604-2.0225 0.3715-0.82551-0.3715-22.124-1.6923-7.5122-1.2795-1.8161s-2.5178-0.86679-2.6829-0.86679-2.1876 0.45404-2.2702 0.70169c-0.0825 0.24766-0.9906 1.4859-1.0732 1.7748-0.0825 0.28893-0.3302 2.6416-0.3302 2.6416l-0.94935-1.6923-2.2289-2.0638-3.2608 0.0413-2.0225 1.5685-0.9906 2.394-0.28895 1.1557"/></g></svg>
