<?xml version="1.0" encoding="UTF-8"?>
<!-- Created with Inkscape (http://www.inkscape.org/) -->
<svg width="48mm" height="48mm" version="1.1" viewBox="0 0 48 48" xmlns="http://www.w3.org/2000/svg"><g><g transform="matrix(1.2821 0 0 1.2821 -104.55 -147.76)" fill="none" stroke="#1a1a1a" stroke-width=".4086"><path d="m100.94 115.62-6.3822-0.0395-0.21735 1.0472-0.63229 1.9166-0.88916 2.213-0.39028 1.1723-0.51696 1.3832-0.47504 1.8583-0.33532 1.6207-0.25149 1.3692-0.19561 2.3333-0.08383 2.99-0.05589 1.3553-0.23752 2.3752-0.36327 2.4311-0.02794 1.8303 0.0978 2.5429 0.16766 2.5988 0.08383 2.8782-0.01397 1.8443-0.01397 1.1038h2.8642l0.0978-1.3972 0.27944-1.7185 0.64271-2.3054 0.82434-2.8223 0.67065-1.7744 0.51696-1.3413 0.16766-1.1876 0.15369-1.6766-0.20958-1.2994s0.29341-1.1457 0.30738-1.2016c0.01397-0.0559 1.3972-3.1018 1.3972-3.1018l1.5229-4.3033 0.78242-2.501 0.41916-1.6487 0.20958-1.8164 0.0911 1e-3m5e-3 -6.7298 6.3822-0.0395 0.21735 1.0472 0.63229 1.9166 0.88917 2.213 0.39028 1.1723 0.51696 1.3832 0.47504 1.8583 0.33533 1.6207 0.25149 1.3692 0.19561 2.3333 0.0838 2.99 0.0559 1.3553 0.23752 2.3752 0.36327 2.4311 0.0279 1.8303-0.0978 2.5429-0.16767 2.5988-0.0838 2.8782 0.014 1.8443 0.014 1.1038h-2.8642l-0.0978-1.3972-0.27943-1.7185-0.64271-2.3054-0.82434-2.8223-0.67065-1.7744-0.51696-1.3413-0.16766-1.1876-0.15369-1.6766 0.20958-1.2994s-0.29341-1.1457-0.30738-1.2016c-0.014-0.0559-1.3972-3.1018-1.3972-3.1018l-1.5229-4.3033-0.78242-2.501-0.41916-1.6487-0.20958-1.8164-0.0911 1e-3"/><path d="m97.901 115.69 0.23752 1.1597 0.76845 1.6347 0.71256 0.75448 0.62873 0.1956h0.23752s0.0419-0.88022 0.0699-0.93611c0.028-0.0559 0.0419-2.8363 0.0419-2.8363m3.3817 0.0279-0.23752 1.1597-0.76845 1.6347-0.71257 0.75448-0.62873 0.1956h-0.23752s-0.0419-0.88022-0.0699-0.93611c-0.028-0.0559-0.0419-2.8363-0.0419-2.8363"/><path d="m92.466 121.79 0.78242-0.0699 1.1177-0.75448s0.76845-1.3134 0.82434-1.4112c0.05589-0.0978-0.25438-1.7935-0.25772-2.0152-3e-3 -0.19765 0.36533-0.33427 0.36533-0.33427l0.67065 2.3612 0.50299 3.1576s0.12866 1.1116 0.14833 1.2629c0.02282 0.17558 0.2848 2.1602 0.2848 2.1602l0.01397 2.6546-0.36327 3.0319-0.51696 1.8862-0.71256 0.61476-0.31719-0.16551-0.6427-0.60079-0.69859-0.58682-0.58682 0.0838-0.78242 0.16766-0.76845-0.36327-0.33532-1.2714-0.27944-1.3972-0.11178-1.1038m18.611-7.3072-0.78242-0.0699-1.1178-0.75448s-0.76845-1.3134-0.82434-1.4112c-0.0559-0.0978 0.25438-1.7935 0.25772-2.0152 3e-3 -0.19765-0.36533-0.33427-0.36533-0.33427l-0.67065 2.3612-0.50298 3.1576s-0.12867 1.1116-0.14833 1.2629c-0.0228 0.17558-0.2848 2.1602-0.2848 2.1602l-0.014 2.6546 0.36327 3.0319 0.51696 1.8862 0.71256 0.61476 0.31719-0.16551 0.6427-0.60079 0.6986-0.58682 0.58681 0.0838 0.78243 0.16766 0.76845-0.36327 0.33533-1.2714 0.27943-1.3972 0.11178-1.1038"/><path d="m95.764 116.59 0.98502 0.72654s0.55189 1.8024 0.55888 1.8373c7e-3 0.0349 0.41217 2.005 0.41217 2.005l0.37724 2.3892 0.13273 1.5998-0.02096 3.5698-0.24451 1.8652-0.25149 1.5648-0.34231 1.6836-0.30738 0.60777-0.18862-0.39819 0.12575-0.77544 0.36327-1.8303 0.15369-1.4181s0.21656-2.1307 0.21656-2.1726c0-0.0419-0.12575-2.1586-0.12575-2.1586l-0.20259-2.3054-0.53792-3.1157-0.76845-2.7525zm10.354 0-0.98502 0.72654s-0.55189 1.8024-0.55888 1.8373c-7e-3 0.0349-0.41217 2.005-0.41217 2.005l-0.37724 2.3892-0.13273 1.5998 0.021 3.5698 0.24451 1.8652 0.25149 1.5648 0.34231 1.6836 0.30738 0.60777 0.18862-0.39819-0.12574-0.77544-0.36327-1.8303-0.15369-1.4181s-0.21657-2.1307-0.21657-2.1726c0-0.0419 0.12575-2.1586 0.12575-2.1586l0.20259-2.3054 0.53792-3.1157 0.76845-2.7525z"/><path d="m100.81 122.29-0.78243-0.20259-0.71256-0.4471-0.55189-0.57285-0.28642-0.0279 0.02096 1.3273 0.18163 2.5219s-0.06986 2.8433-0.06986 2.8712c0 0.0279-0.25848 2.3612-0.25848 2.3612l-0.12575 0.66366 0.78941-2.4032 0.97104-2.6547 0.60079-1.5858m0.48955-1.8513 0.78243-0.20259 0.71256-0.4471 0.55189-0.57285 0.28642-0.0279-0.021 1.3273-0.18163 2.5219s0.0699 2.8433 0.0699 2.8712c0 0.0279 0.25848 2.3612 0.25848 2.3612l0.12575 0.66366-0.78941-2.4032-0.97105-2.6547-0.60079-1.5858"/><path d="m90.329 136.24c0.02794-0.0699 0.55888-1.2156 0.55888-1.2156l0.18163-0.53093 0.29341 0.95009s0.33532 2.6546 0.33532 2.7105c0 0.0559-0.06986 2.1517-0.06986 2.1517l-0.43313 3.5069s-0.32135 2.9062-0.32135 2.976c0 0.0699-0.27944 2.3752-0.27944 2.3752l-0.3493 1.4391m21.308-14.363c-0.0279-0.0699-0.55888-1.2156-0.55888-1.2156l-0.18163-0.53093-0.29341 0.95009s-0.33532 2.6546-0.33532 2.7105c0 0.0559 0.0699 2.1517 0.0699 2.1517l0.43312 3.5069s0.32136 2.9062 0.32136 2.976c0 0.0699 0.27944 2.3752 0.27944 2.3752l0.34929 1.4391"/><path d="m96.644 135.33-0.55887-0.0419-0.72654 0.44709-0.82434 1.1457-0.5449 1.5509s-0.39121 1.5788-0.39121 1.6487c0 0.0699-0.22355 1.8303-0.22355 1.8303l-0.06986 1.8303 0.40518 0.96406s0.41916 0.47504 0.47504 0.50299c0.05589 0.0279 0.4471-0.0838 0.4471-0.0838m10.605-9.7943 0.55887-0.0419 0.72654 0.44709 0.82434 1.1457 0.5449 1.5509s0.39121 1.5788 0.39121 1.6487c0 0.0699 0.22355 1.8303 0.22355 1.8303l0.0699 1.8303-0.40518 0.96406s-0.41916 0.47504-0.47504 0.50299c-0.0559 0.0279-0.4471-0.0838-0.4471-0.0838"/><path d="m93.067 151.22-0.25149-2.1098s-0.15369-1.8024-0.11178-1.97c0.04192-0.16766 0.1956-2.3193 0.22355-2.3892 0.02794-0.0699 0.31522-0.81534 0.31522-0.81534l0.48118 1.3463 0.66804 0.22146m14.422 5.7166 0.2515-2.1098s0.15369-1.8024 0.11177-1.97c-0.0419-0.16766-0.1956-2.3193-0.22355-2.3892-0.0279-0.0699-0.31522-0.81534-0.31522-0.81534l-0.48117 1.3463-0.66804 0.22146"/></g><path d="m31.664 24.227-0.36584-0.3181-0.32919-1.1996-0.32918-1.1996-0.47335-3.9165 0.0043-1.7802 0.0043-1.7802 0.19743-1.5021c0.10858-0.82614 0.23846-1.8526 0.28862-2.2809 0.0567-0.48423 0.25013-1.4679 0.43909-2.7696l0.31759-2.1877 0.39397-1.3878c0.21668-0.7633 0.40163-1.3802 0.411-1.3708 0.0094 0.00937-0.01808 0.25221-0.06097 0.53965-0.29502 1.9765-0.30724 2.0872-0.2465 2.2318 0.01956 0.04659 0.2837 0.5105 0.58695 1.0309l0.55137 0.94619 0.5452 0.36907c0.29986 0.20299 0.66128 0.44736 0.80316 0.54305l0.25796 0.17398 0.45985 0.041397c0.25292 0.022768 0.46321 0.045498 0.46731 0.050511 0.0041 0.00501 0.1635 0.42969 0.35422 0.94374l0.34676 0.93462 0.30397 1.1905c0.32376 1.268 0.61323 2.6058 0.91491 4.2281 0.14408 0.77478 0.17487 0.98554 0.21948 1.502 0.0307 0.35548 0.04357 0.6059 0.03151 0.61336-0.01121 0.0069-0.05511 0.34743-0.09755 0.75667-0.0691 0.66629-0.09581 0.83712-0.25552 1.6342-0.1105 0.55145-0.25676 1.19-0.38444 1.6783l-0.20608 0.78815-0.82001 0.39511-0.46898-0.10088c-0.51089-0.10989-1.3815-0.24413-1.4225-0.21933-0.09089 0.05499-1.0763 0.90564-1.4241 1.2293-0.35221 0.32782-0.58545 0.51495-0.63768 0.51162-0.0061-3.84e-4 -0.17575-0.14386-0.37696-0.31881z" display="none" fill="#a00" stroke-width=".044061"/></g></svg>
