<?xml version="1.0" encoding="UTF-8"?>
<!-- Created with Inkscape (http://www.inkscape.org/) -->
<svg width="48" height="48" version="1.1" viewBox="0 0 12.7 12.7" xmlns="http://www.w3.org/2000/svg"><g><path d="m7.0263 6.2153c-0.2704-0.01452-0.2912-0.018054-0.40093-0.068108-0.10977-0.05007-0.11717-0.056946-0.14355-0.13327-0.039069-0.11304-0.062264-0.46934-0.061762-0.94873 7.158e-4 -0.68863 0.079897-1.2806 0.24722-1.8483 0.03135-0.10637 0.040957-0.12023 0.13443-0.19397 0.15146-0.11948 0.33223-0.20337 0.55598-0.25801 0.63265-0.15449 1.2665-0.21644 1.4155-0.13835 0.10092 0.052898 0.38901 0.33488 0.48415 0.47387 0.091849 0.13419 0.10135 0.15784 0.19086 0.475 0.09398 0.33301 0.094221 0.33444 0.1054 0.62584 0.017507 0.45623-0.034122 0.69691-0.23562 1.0985-0.063662 0.12686-0.10401 0.18423-0.17704 0.25172-0.052023 0.048075-0.14987 0.13983-0.21743 0.20389-0.079301 0.075194-0.18664 0.15306-0.30282 0.21967l-0.17997 0.10319-0.34369 0.061001c-0.18903 0.033551-0.43206 0.065975-0.54007 0.072055-0.10801 0.00609-0.20742 0.01292-0.22092 0.015197-0.013501 0.00229-0.15288-0.00276-0.30974-0.011172z" fill="#a00" stroke-width=".016037"/><path d="m5.1092 6.2251c-0.094899-0.0077778-0.32317-0.040774-0.50726-0.073321l-0.33471-0.059178-0.18302-0.10677c-0.11107-0.064791-0.22826-0.14981-0.29807-0.21626-0.063276-0.060222-0.16078-0.15111-0.21668-0.20198-0.081833-0.074468-0.11799-0.12508-0.18562-0.25986-0.18509-0.36884-0.2302-0.5731-0.23065-1.0444l-3.041e-4 -0.31227 0.10035-0.35554c0.098761-0.3499 0.102-0.35786 0.2037-0.50128 0.057757-0.081446 0.16404-0.20047 0.24092-0.26982 0.22798-0.20562 0.24468-0.21553 0.38856-0.23044 0.20817-0.021575 0.75933 0.050487 1.216 0.15899 0.25875 0.061474 0.4684 0.15414 0.62283 0.2753 0.079778 0.062589 0.090193 0.078877 0.12764 0.19963 0.1648 0.53137 0.23971 1.1198 0.2393 1.8798-3.041e-4 0.56977-0.018351 0.83775-0.063363 0.94083-0.027976 0.064066-0.043318 0.077006-0.13872 0.11701-0.092201 0.038659-0.14381 0.047308-0.36745 0.061574-0.29099 0.018564-0.3656 0.018318-0.61352-0.0019908z" fill="#a00" stroke-width=".016107"/><g transform="matrix(.98171 0 0 .98171 .10854 .28976)" stroke-width=".25929"><g transform="translate(4.4645 93.499)" fill="none" stroke="#1a1a1a" stroke-width="1.939"><path transform="matrix(.13372 0 0 .13372 -10.967 -100.45)" d="m96.227 134.24-18.941 0.0727 0.05837-4.9033-0.29186-6.3626-0.29186-4.3196-0.58373-3.6191-1.3426-3.9693-1.5761-5.3119-6.2447 11.331-1.4579 6.9174-1.787 6.7193-1.8607 4.8432-2.5786 4.4924-2.0819 4.7508-8.178 0.50401 0.66735-6.8968 0.85399-8.3175 1.6366-6.611 3.5826-9.4014 0.91511-4.8082 0.7142-6.1504 0.81722-6.1875 0.35023-3.9693 0.81722-3.6191 0.70047-2.4516 0.46698-3.1521 0.70047-3.2689 0.35024-2.6851v-2.2182l1.5177-2.4517 1.2842-1.2842 2.9186-1.7512 2.6851-0.93396 3.9693-0.93396 5.2535-1.7512 5.1368-1.6344 2.2182-1.0507 0.23349-3.3856-0.35024-4.7866 9.966-0.03371m-0.24765 78.589 18.941 0.0727-0.0584-4.9033 0.29187-6.3626 0.29186-4.3196 0.58372-3.6191 1.3426-3.9693 1.576-5.3119 6.2447 11.331 1.4579 6.9174 1.787 6.7193 1.8607 4.8432 2.5786 4.4924 2.0819 4.7508 8.178 0.50401-0.66735-6.8968-0.85399-8.3175-1.6366-6.611-3.5826-9.4014-0.91511-4.8082-0.7142-6.1504-0.81722-6.1875-0.35023-3.9693-0.81722-3.6191-0.70047-2.4516-0.46698-3.1521-0.70047-3.2689-0.35024-2.6851v-2.2182l-1.5177-2.4517-1.2842-1.2842-2.9186-1.7512-2.6851-0.93396-3.9693-0.93396-5.2535-1.7512-5.1368-1.6344-2.2182-1.0507-0.23349-3.3856 0.35024-4.7866-9.966-0.03371"/><g transform="matrix(.13372 0 0 .13372 -10.901 -100.44)"><path d="m87.352 106.67 8.0488 0.1651-0.08255-6.6454-3.4259 0.16511-3.1782 1.8161-1.197 2.1463zm16.758 0-8.0488 0.1651 0.08255-6.6454 3.4259 0.16511 3.1782 1.8161 1.197 2.1463z"/><path d="m87.672 108.28h7.2645l0.49531 0.3302-0.04128 6.4803-0.99062 0.53658c-7.58-0.13126-6.6212-0.0531-7.0994-0.0413l-0.74296-0.78424 0.12382-5.6135zm16.118 0h-7.2645l-0.49531 0.3302 0.04128 6.4803 0.99062 0.53658c7.58-0.13126 6.6212-0.0531 7.0994-0.0413l0.74295-0.78424-0.12382-5.6135z"/><path d="m87.621 116.79h7.2645l0.49531 0.3302-0.04128 6.4803-0.99062 0.53658-7.0994-0.0413-0.74296-0.78424 0.12382-5.6135zm16.221 0h-7.2645l-0.49531 0.3302 0.04128 6.4803 0.99062 0.53658 7.0994-0.0413 0.74296-0.78424-0.12382-5.6135z"/><path d="m87.311 134.08c-0.04127-0.20637-0.86679-3.3846-0.86679-3.3846l0.1651-4.1688 0.66041-1.0732 5.242-0.16511 2.394 0.57786 0.53658 0.70169 0.12382 7.5122m8.5854 0c0.0413-0.20637 0.86679-3.3846 0.86679-3.3846l-0.16511-4.1688-0.66041-1.0732-5.242-0.16511-2.394 0.57786-0.53658 0.70169-0.12382 7.5122"/><path d="m72.742 105.82 0.86518-2.7029 0.86679-8.6679-0.78424-2.1051-1.7336-3.3846-0.78424-2.1463-0.45403-2.7242v-1.2795l-1.197 1.8574-1.6923 1.2795-3.0544 1.4446-3.0544 1.7749-1.7336 1.5685-0.86679 1.651-1.0669 2.2719m60.667 11.163-0.86518-2.7029-0.86679-8.6679 0.78424-2.1051 1.7336-3.3846 0.78424-2.1463 0.45404-2.7242v-1.2795l1.197 1.8574 1.6923 1.2795 3.0544 1.4446 3.0544 1.7749 1.7336 1.5685 0.86679 1.651 1.067 2.2719"/><path d="m70.745 82.699 0.05586-3.1882 1.5272-5.3658 1.6098-2.3114 2.4765-2.2289 0.82552-0.53659-4.3177-0.62414m47.796 14.255-0.0559-3.1882-1.5272-5.3658-1.6098-2.3114-2.4765-2.2289-0.82552-0.53659 4.3177-0.62414"/><path d="m77.446 68.986 2.1876-0.20638 3.3846 0.37148 3.137 0.53658 3.4672 0.82551 2.2702 1.1557 1.651 1.3208 0.53658 1.651 0.99062 4.0037 0.66041 6.1088v6.6041l-0.24766 3.4259-0.66041 1.5685-2.1463 0.94934-4.4578 0.24765-3.5497-0.24765-5.1182-0.90807-2.848-1.651-2.4353-2.2702-0.74296-0.66041m40.491-22.825-2.1876-0.20638-3.3846 0.37148-3.137 0.53658-3.4672 0.82551-2.2702 1.1557-1.651 1.3208-0.53658 1.651-0.99062 4.0037-0.66041 6.1088v6.6041l0.24766 3.4259 0.66041 1.5685 2.1463 0.94934 4.4578 0.24765 3.5497-0.24765 5.1182-0.90807 2.848-1.651 2.4353-2.2702 0.74297-0.66041"/><path d="m76.877 131.05 4.4947 2.4516 2.6268 0.52535s1.2842-0.0584 1.4009-0.35023c0.11674-0.29186 0.17512-2.4516 0.17512-2.6852 0-0.23348-0.58373-3.3856-0.58373-3.6191s-0.35024-6.0708-0.35024-6.0708l0.11674-3.5024 0.35024-6.1875 0.29186-6.5961-0.40861-3.9693-1.6344-1.9847-2.8019-1.0507-0.46698 0.11674-0.46698 2.3349s-1.2258 3.1521-1.2258 3.3856-0.93396 3.6191-0.93396 3.6191l-0.6421 2.9186-0.46698 2.3933-0.72172 1.7524m38.956 16.518-4.4947 2.4516-2.6268 0.52535s-1.2842-0.0584-1.4009-0.35023c-0.11675-0.29186-0.17512-2.4516-0.17512-2.6852 0-0.23348 0.58373-3.3856 0.58373-3.6191s0.35023-6.0708 0.35023-6.0708l-0.11674-3.5024-0.35024-6.1875-0.29186-6.5961 0.40861-3.9693 1.6344-1.9847 2.8019-1.0507 0.46698 0.11674 0.46698 2.3349s1.2258 3.1521 1.2258 3.3856 0.93397 3.6191 0.93397 3.6191l0.64209 2.9186 0.46699 2.3933 0.72171 1.7524"/><path d="m80.262 98.154-1.8096-1.722-3.5899-3.3272m36.337 5.0492 1.8096-1.722 3.5899-3.3272"/><path d="m86.821 55.651 1.8524 3.9241 1.4446 3.7561 0.61914 5.6135-0.70169 1.1144-3.2195-0.28893m17.826-14.119-1.8524 3.9241-1.4446 3.7561-0.61914 5.6135 0.70169 1.1144 3.2195-0.28893"/><path transform="translate(-.49531 -.082551)" d="m57.497 103.38 1.255 5.2827 1.9555 5.3119 0.67128 1.0215 3.6483-3.911s4.7574-6.2751 4.8157-6.4502c0.05837-0.17512 2.1598-5.2244 2.1598-5.2244l0.70047-5.4287s-1.1091-4.3196-1.2258-4.699c-0.11674-0.37942-1.2258-4.5531-1.2258-4.5531m64.705 18.65-1.255 5.2827-1.9555 5.3119-0.67128 1.0215-3.6483-3.911s-4.7574-6.2751-4.8157-6.4502c-0.0584-0.17512-2.1598-5.2244-2.1598-5.2244l-0.70047-5.4287s1.1091-4.3196 1.2258-4.699c0.11674-0.37942 1.2258-4.5531 1.2258-4.5531"/><path transform="translate(-.49531 -.082551)" d="m58.139 106.97c0 0.20431 0.35024 4.0277 0.35024 4.0277l1.9263 4.9909 1.2842 2.3933 0.23349 2.5684-1.1091 3.444-0.87559 1.2258-1.9263 3.2689-3.911 5.1952s-2.9478 4.8157-3.0062 4.9909c-0.05837 0.17512-0.99234 2.4808-1.0799 2.6268-0.08756 0.14593-0.58373 1.1383-0.58373 1.1383m84.872-35.87c0 0.20431-0.35024 4.0277-0.35024 4.0277l-1.9263 4.9909-1.2842 2.3933-0.23349 2.5684 1.1091 3.444 0.87558 1.2258 1.9263 3.2689 3.911 5.1952s2.9478 4.8157 3.0062 4.9909c0.0584 0.17512 0.99233 2.4808 1.0799 2.6268 0.0876 0.14593 0.58373 1.1383 0.58373 1.1383"/><path transform="translate(-.49531 -.082551)" d="m49.704 145.2 1.255-3.2397 2.3057-4.7866 3.0062-4.8158 2.977-4.2028s2.656-4.4363 2.8019-4.5531c0.14593-0.11675 2.51-3.4732 2.51-3.4732l2.189-2.1306m76 27.202-1.255-3.2397-2.3057-4.7866-3.0062-4.8158-2.977-4.2028s-2.656-4.4363-2.8019-4.5531c-0.14593-0.11675-2.51-3.4732-2.51-3.4732l-2.189-2.1306"/></g></g></g></g></svg>
