<?xml version="1.0" encoding="UTF-8"?>
<!-- Created with Inkscape (http://www.inkscape.org/) -->
<svg width="48" height="48" version="1.1" viewBox="0 0 12.7 12.7" xmlns="http://www.w3.org/2000/svg"><g fill="#a00"><path d="m4.6549 11.024c-0.10439-0.022446-0.18661-0.058027-0.38234-0.16546-0.13714-0.075273-0.25448-0.14206-0.26075-0.14841-0.0062671-0.006354-0.023094-0.26215-0.03739-0.56844-0.036445-0.78082-0.053365-0.99787-0.10344-1.327l-0.043823-0.28799 0.04439-0.10809c0.024414-0.05945 0.07481-0.25526 0.11199-0.43512 0.098655-0.47726 0.2217-0.94493 0.31347-1.1914 0.044247-0.11886 0.089256-0.25953 0.10002-0.31262 0.010764-0.053082 0.02487-0.094225 0.031351-0.091429 0.00648 0.0028 0.062351 0.023435 0.12416 0.045863 0.09968 0.036171 0.12243 0.053219 0.20134 0.15088l0.08896 0.1101 0.025824 0.24821c0.02742 0.26356 0.018513 0.58454-0.047705 1.7191-0.013608 0.23314-0.024534 0.54358-0.024286 0.68987 6.432e-4 0.37348 0.041727 0.97868 0.081824 1.2052 0.018614 0.10514 0.033891 0.26036 0.033952 0.34493l1.104e-4 0.15377-0.062337-0.0017c-0.034286-9.23e-4 -0.12218-0.01456-0.19532-0.03029z" stroke-width=".01925"/><g stroke-width=".020951"><path d="m5.6254 7.3974-0.25781-0.00556v-0.065106c0-0.042125 0.026937-0.11497 0.076307-0.20638l0.076308-0.14128 0.20864-0.11679c0.20114-0.11259 0.21434-0.11719 0.36695-0.12793l0.15831-0.011143v0.68771l-0.18544-0.00398c-0.10199-0.00219-0.30146-0.00649-0.44326-0.00954z"/><path d="m5.2314 8.5775c-0.00597-0.015556-0.0071-0.17825-0.0025-0.36155 0.00726-0.28988 0.01265-0.33801 0.041364-0.36974 0.03152-0.034829 0.054697-0.036479 0.5124-0.036479h0.47939l-0.011794 0.19278c-0.00649 0.10603-0.011794 0.28514-0.011794 0.39803v0.20524h-0.49811c-0.43504 0-0.49948-0.00358-0.50896-0.028285z"/><path d="m5.6776 9.6549-0.46135-0.00951 0.00629-0.36184c0.00513-0.29565 0.011433-0.36764 0.03446-0.39351 0.025491-0.028638 0.073676-0.031661 0.50482-0.031661h0.47664v0.39609c0 0.34449-0.00373 0.39752-0.028617 0.40707-0.015739 0.00604-0.038129 0.00916-0.049753 0.00693-0.011624-0.00222-0.22874-0.00834-0.48248-0.013569z"/><path d="m5.2522 10.833c-0.047318-0.19073-0.048977-0.21238-0.036383-0.47492 0.00726-0.15129 0.020247-0.28832 0.028863-0.30452 0.013344-0.02507 0.066051-0.03076 0.35545-0.03837 0.29847-0.0078 0.35812-0.0045 0.49061 0.02753 0.082958 0.02006 0.15373 0.04547 0.15728 0.05646 0.00355 0.011 0.00903 0.22557 0.012187 0.47683l0.00574 0.45683h-0.96417z"/></g><g stroke-width=".020814"><path d="m6.4873 7.1895c0-0.11374 0.00523-0.26864 0.011617-0.34422l0.011617-0.13742 0.15464 0.011554c0.14844 0.011091 0.16272 0.016177 0.35622 0.12686 0.19935 0.11403 0.20238 0.11675 0.2741 0.24669 0.051778 0.093799 0.072526 0.1526 0.072526 0.20556v0.074176l-0.15727 5.98e-5c-0.086499 3.3e-5 -0.28466 0.00534-0.44036 0.011802l-0.28309 0.011741z"/><path d="m6.4715 8.1975v-0.3957h0.47352c0.42827 0 0.47621 0.00299 0.50165 0.031454 0.02309 0.025817 0.029161 0.095882 0.033881 0.39093l0.00575 0.35948-1.0148 0.00954z"/><path d="m6.5169 9.6762c-0.014257-0.0088234-0.022572-0.13323-0.02673-0.39992l-0.0060385-0.38711h0.47506c0.43474 0 0.47755 0.00275 0.50436 0.03237 0.04157 0.045934 0.067798 0.7345 0.028508 0.74845-0.040735 0.014466-0.95244 0.020265-0.97516 0.0062z"/><path d="m6.4537 10.689c5.92e-5 -0.18057 0.00526-0.39449 0.011557-0.47537l0.011448-0.14705 0.13673-0.03186c0.17625-0.04107 0.80236-0.03822 0.84592 0.0038 0.019821 0.01914 0.028623 0.09417 0.036195 0.30851 0.00928 0.26265 0.00664 0.29692-0.036299 0.47194l-0.046303 0.18872-0.95936 0.0096z"/></g><path d="m7.791 11.063c-0.018377-0.11119-0.012122-0.20599 0.030546-0.46285 0.025576-0.15397 0.051885-0.4267 0.06856-0.71075 0.028549-0.48627 0.026162-0.60747-0.03292-1.6729-0.044631-0.80484-0.049284-1.0458-0.025372-1.3142l0.022443-0.25186 0.090647-0.11585c0.080668-0.1031 0.1034-0.12072 0.20651-0.16012 0.063725-0.02435 0.12395-0.044274 0.13383-0.044274 0.00988 0 0.026432 0.04554 0.036783 0.1012 0.01035 0.055661 0.053935 0.19457 0.096853 0.30868 0.08947 0.23789 0.2344 0.7894 0.32518 1.2374 0.034242 0.169 0.083934 0.36104 0.11043 0.42676l0.04817 0.11949-0.040714 0.24752c-0.022391 0.13614-0.048272 0.34354-0.057509 0.4609-0.02398 0.30467-0.068369 1.1909-0.06879 1.3734l-3.446e-4 0.15438-0.27812 0.1491c-0.24128 0.12935-0.30028 0.15366-0.44536 0.18351-0.091977 0.01893-0.1769 0.03441-0.18872 0.03441-0.01182 0-0.026254-0.02881-0.032074-0.06401z" stroke-width=".019816"/></g><g transform="matrix(.98171 0 0 .98171 .10854 .28976)" stroke-width=".25929"><g transform="translate(4.4645 93.499)" fill="none" stroke="#1a1a1a" stroke-width="1.939"><path transform="matrix(.13372 0 0 .13372 -10.967 -100.45)" d="m96.227 134.24-18.941 0.0727 0.05837-4.9033-0.29186-6.3626-0.29186-4.3196-0.58373-3.6191-1.3426-3.9693-1.5761-5.3119-6.2447 11.331-1.4579 6.9174-1.787 6.7193-1.8607 4.8432-2.5786 4.4924-2.0819 4.7508-8.178 0.50401 0.66735-6.8968 0.85399-8.3175 1.6366-6.611 3.5826-9.4014 0.91511-4.8082 0.7142-6.1504 0.81722-6.1875 0.35023-3.9693 0.81722-3.6191 0.70047-2.4516 0.46698-3.1521 0.70047-3.2689 0.35024-2.6851v-2.2182l1.5177-2.4517 1.2842-1.2842 2.9186-1.7512 2.6851-0.93396 3.9693-0.93396 5.2535-1.7512 5.1368-1.6344 2.2182-1.0507 0.23349-3.3856-0.35024-4.7866 9.966-0.03371m-0.24765 78.589 18.941 0.0727-0.0584-4.9033 0.29187-6.3626 0.29186-4.3196 0.58372-3.6191 1.3426-3.9693 1.576-5.3119 6.2447 11.331 1.4579 6.9174 1.787 6.7193 1.8607 4.8432 2.5786 4.4924 2.0819 4.7508 8.178 0.50401-0.66735-6.8968-0.85399-8.3175-1.6366-6.611-3.5826-9.4014-0.91511-4.8082-0.7142-6.1504-0.81722-6.1875-0.35023-3.9693-0.81722-3.6191-0.70047-2.4516-0.46698-3.1521-0.70047-3.2689-0.35024-2.6851v-2.2182l-1.5177-2.4517-1.2842-1.2842-2.9186-1.7512-2.6851-0.93396-3.9693-0.93396-5.2535-1.7512-5.1368-1.6344-2.2182-1.0507-0.23349-3.3856 0.35024-4.7866-9.966-0.03371"/><g transform="matrix(.13372 0 0 .13372 -10.901 -100.44)"><path d="m87.352 106.67 8.0488 0.1651-0.08255-6.6454-3.4259 0.16511-3.1782 1.8161-1.197 2.1463zm16.758 0-8.0488 0.1651 0.08255-6.6454 3.4259 0.16511 3.1782 1.8161 1.197 2.1463z"/><path d="m87.672 108.28h7.2645l0.49531 0.3302-0.04128 6.4803-0.99062 0.53658c-7.58-0.13126-6.6212-0.0531-7.0994-0.0413l-0.74296-0.78424 0.12382-5.6135zm16.118 0h-7.2645l-0.49531 0.3302 0.04128 6.4803 0.99062 0.53658c7.58-0.13126 6.6212-0.0531 7.0994-0.0413l0.74295-0.78424-0.12382-5.6135z"/><path d="m87.621 116.79h7.2645l0.49531 0.3302-0.04128 6.4803-0.99062 0.53658-7.0994-0.0413-0.74296-0.78424 0.12382-5.6135zm16.221 0h-7.2645l-0.49531 0.3302 0.04128 6.4803 0.99062 0.53658 7.0994-0.0413 0.74296-0.78424-0.12382-5.6135z"/><path d="m87.311 134.08c-0.04127-0.20637-0.86679-3.3846-0.86679-3.3846l0.1651-4.1688 0.66041-1.0732 5.242-0.16511 2.394 0.57786 0.53658 0.70169 0.12382 7.5122m8.5854 0c0.0413-0.20637 0.86679-3.3846 0.86679-3.3846l-0.16511-4.1688-0.66041-1.0732-5.242-0.16511-2.394 0.57786-0.53658 0.70169-0.12382 7.5122"/><path d="m72.742 105.82 0.86518-2.7029 0.86679-8.6679-0.78424-2.1051-1.7336-3.3846-0.78424-2.1463-0.45403-2.7242v-1.2795l-1.197 1.8574-1.6923 1.2795-3.0544 1.4446-3.0544 1.7749-1.7336 1.5685-0.86679 1.651-1.0669 2.2719m60.667 11.163-0.86518-2.7029-0.86679-8.6679 0.78424-2.1051 1.7336-3.3846 0.78424-2.1463 0.45404-2.7242v-1.2795l1.197 1.8574 1.6923 1.2795 3.0544 1.4446 3.0544 1.7749 1.7336 1.5685 0.86679 1.651 1.067 2.2719"/><path d="m70.745 82.699 0.05586-3.1882 1.5272-5.3658 1.6098-2.3114 2.4765-2.2289 0.82552-0.53659-4.3177-0.62414m47.796 14.255-0.0559-3.1882-1.5272-5.3658-1.6098-2.3114-2.4765-2.2289-0.82552-0.53659 4.3177-0.62414"/><path d="m77.446 68.986 2.1876-0.20638 3.3846 0.37148 3.137 0.53658 3.4672 0.82551 2.2702 1.1557 1.651 1.3208 0.53658 1.651 0.99062 4.0037 0.66041 6.1088v6.6041l-0.24766 3.4259-0.66041 1.5685-2.1463 0.94934-4.4578 0.24765-3.5497-0.24765-5.1182-0.90807-2.848-1.651-2.4353-2.2702-0.74296-0.66041m40.491-22.825-2.1876-0.20638-3.3846 0.37148-3.137 0.53658-3.4672 0.82551-2.2702 1.1557-1.651 1.3208-0.53658 1.651-0.99062 4.0037-0.66041 6.1088v6.6041l0.24766 3.4259 0.66041 1.5685 2.1463 0.94934 4.4578 0.24765 3.5497-0.24765 5.1182-0.90807 2.848-1.651 2.4353-2.2702 0.74297-0.66041"/><path d="m76.877 131.05 4.4947 2.4516 2.6268 0.52535s1.2842-0.0584 1.4009-0.35023c0.11674-0.29186 0.17512-2.4516 0.17512-2.6852 0-0.23348-0.58373-3.3856-0.58373-3.6191s-0.35024-6.0708-0.35024-6.0708l0.11674-3.5024 0.35024-6.1875 0.29186-6.5961-0.40861-3.9693-1.6344-1.9847-2.8019-1.0507-0.46698 0.11674-0.46698 2.3349s-1.2258 3.1521-1.2258 3.3856-0.93396 3.6191-0.93396 3.6191l-0.6421 2.9186-0.46698 2.3933-0.72172 1.7524m38.956 16.518-4.4947 2.4516-2.6268 0.52535s-1.2842-0.0584-1.4009-0.35023c-0.11675-0.29186-0.17512-2.4516-0.17512-2.6852 0-0.23348 0.58373-3.3856 0.58373-3.6191s0.35023-6.0708 0.35023-6.0708l-0.11674-3.5024-0.35024-6.1875-0.29186-6.5961 0.40861-3.9693 1.6344-1.9847 2.8019-1.0507 0.46698 0.11674 0.46698 2.3349s1.2258 3.1521 1.2258 3.3856 0.93397 3.6191 0.93397 3.6191l0.64209 2.9186 0.46699 2.3933 0.72171 1.7524"/><path d="m80.262 98.154-1.8096-1.722-3.5899-3.3272m36.337 5.0492 1.8096-1.722 3.5899-3.3272"/><path d="m86.821 55.651 1.8524 3.9241 1.4446 3.7561 0.61914 5.6135-0.70169 1.1144-3.2195-0.28893m17.826-14.119-1.8524 3.9241-1.4446 3.7561-0.61914 5.6135 0.70169 1.1144 3.2195-0.28893"/><path transform="translate(-.49531 -.082551)" d="m57.497 103.38 1.255 5.2827 1.9555 5.3119 0.67128 1.0215 3.6483-3.911s4.7574-6.2751 4.8157-6.4502c0.05837-0.17512 2.1598-5.2244 2.1598-5.2244l0.70047-5.4287s-1.1091-4.3196-1.2258-4.699c-0.11674-0.37942-1.2258-4.5531-1.2258-4.5531m64.705 18.65-1.255 5.2827-1.9555 5.3119-0.67128 1.0215-3.6483-3.911s-4.7574-6.2751-4.8157-6.4502c-0.0584-0.17512-2.1598-5.2244-2.1598-5.2244l-0.70047-5.4287s1.1091-4.3196 1.2258-4.699c0.11674-0.37942 1.2258-4.5531 1.2258-4.5531"/><path transform="translate(-.49531 -.082551)" d="m58.139 106.97c0 0.20431 0.35024 4.0277 0.35024 4.0277l1.9263 4.9909 1.2842 2.3933 0.23349 2.5684-1.1091 3.444-0.87559 1.2258-1.9263 3.2689-3.911 5.1952s-2.9478 4.8157-3.0062 4.9909c-0.05837 0.17512-0.99234 2.4808-1.0799 2.6268-0.08756 0.14593-0.58373 1.1383-0.58373 1.1383m84.872-35.87c0 0.20431-0.35024 4.0277-0.35024 4.0277l-1.9263 4.9909-1.2842 2.3933-0.23349 2.5684 1.1091 3.444 0.87558 1.2258 1.9263 3.2689 3.911 5.1952s2.9478 4.8157 3.0062 4.9909c0.0584 0.17512 0.99233 2.4808 1.0799 2.6268 0.0876 0.14593 0.58373 1.1383 0.58373 1.1383"/><path transform="translate(-.49531 -.082551)" d="m49.704 145.2 1.255-3.2397 2.3057-4.7866 3.0062-4.8158 2.977-4.2028s2.656-4.4363 2.8019-4.5531c0.14593-0.11675 2.51-3.4732 2.51-3.4732l2.189-2.1306m76 27.202-1.255-3.2397-2.3057-4.7866-3.0062-4.8158-2.977-4.2028s-2.656-4.4363-2.8019-4.5531c-0.14593-0.11675-2.51-3.4732-2.51-3.4732l-2.189-2.1306"/></g></g></g></svg>
