<?xml version="1.0" encoding="UTF-8"?>
<!-- Created with Inkscape (http://www.inkscape.org/) -->
<svg width="48" height="48" version="1.1" viewBox="0 0 12.7 12.7" xmlns="http://www.w3.org/2000/svg"><g fill="#a00"><path d="m0.35386 11.591c0-0.02573 0.019937-0.24152 0.044305-0.47954 0.041175-0.40219 0.052718-0.46648 0.16338-0.90999 0.10924-0.4378 0.14019-0.53275 0.37467-1.1495 0.21511-0.56582 0.26157-0.70493 0.29333-0.8782 0.020757-0.11324 0.042661-0.21135 0.048676-0.21802 0.00602-0.00668 0.075417 0.15468 0.15423 0.35855 0.078809 0.20388 0.18103 0.44013 0.22715 0.52501 0.073398 0.13508 0.085766 0.17275 0.099179 0.302 0.015011 0.14466 0.013897 0.15222-0.054686 0.37071-0.050225 0.16001-0.090134 0.25213-0.14122 0.32599-0.039166 0.056619-0.12783 0.19945-0.19702 0.31741-0.069196 0.11796-0.25134 0.38152-0.40475 0.5857-0.15342 0.20418-0.34626 0.48213-0.42854 0.61766-0.17581 0.2896-0.1787 0.29337-0.1787 0.23225z"/><path d="m0.35519 12.502c0-0.02287 0.15876-0.38177 0.27922-0.6312 0.16464-0.34092 0.4504-0.80904 0.77239-1.2653 0.12027-0.17043 0.30604-0.45318 0.41282-0.62835 0.10678-0.17516 0.23786-0.37658 0.29131-0.44759 0.05344-0.071012 0.12326-0.16744 0.15515-0.21429 0.031891-0.046847 0.060939-0.076304 0.064554-0.06546 0.010557 0.031672-0.057194 0.32264-0.19341 0.83063-0.17536 0.65395-0.31195 1.0042-0.56727 1.4547-0.10733 0.18937-0.25091 0.47212-0.31905 0.62835-0.068141 0.15623-0.12729 0.28744-0.13144 0.2916-0.013251 0.01325-0.76426 0.05938-0.76426 0.04694z"/><path d="m11.957 12.593c-0.1723-0.011-0.32127-0.02812-0.33105-0.03814-0.0097-0.01-0.07691-0.15342-0.14916-0.31869-0.07225-0.16526-0.22039-0.45647-0.32919-0.64712-0.26611-0.4663-0.42114-0.86605-0.60713-1.5655-0.13397-0.50379-0.21838-0.86233-0.20596-0.87476 0.0146-0.014601 0.31952 0.42687 0.53494 0.77453 0.12721 0.20528 0.32724 0.50849 0.44453 0.6738 0.31868 0.44915 0.65743 1.0028 0.82255 1.3444 0.14106 0.29181 0.28852 0.63008 0.28852 0.66187 0 0.01759-0.0435 0.01661-0.46806-0.01047z"/><path d="m12.342 11.632c-0.08921-0.14905-0.31324-0.47367-0.49786-0.72139-0.18462-0.24772-0.40999-0.57528-0.50082-0.72791-0.09083-0.15263-0.18766-0.30755-0.21518-0.34425-0.02752-0.036705-0.08509-0.17829-0.12794-0.31463-0.07455-0.23716-0.07732-0.25499-0.06435-0.41174 0.01236-0.14933 0.02323-0.18249 0.12274-0.37437 0.06004-0.11579 0.17756-0.38954 0.26113-0.60834l0.15195-0.39781 0.05105 0.26708c0.04492 0.23506 0.08557 0.35764 0.33896 1.0226 0.26703 0.70067 0.29705 0.79276 0.41377 1.2695 0.11663 0.47638 0.13005 0.55382 0.18314 1.0573 0.03151 0.29881 0.05466 0.54592 0.05144 0.54914-0.0033 0.0033-0.07883-0.1161-0.16804-0.26515z"/></g><g transform="matrix(.98171 0 0 .98171 .10854 .28976)" stroke-width=".25929"><g transform="translate(4.4645 93.499)" fill="none" stroke="#1a1a1a" stroke-width="1.939"><path transform="matrix(.13372 0 0 .13372 -10.967 -100.45)" d="m96.227 134.24-18.941 0.0727 0.05837-4.9033-0.29186-6.3626-0.29186-4.3196-0.58373-3.6191-1.3426-3.9693-1.5761-5.3119-6.2447 11.331-1.4579 6.9174-1.787 6.7193-1.8607 4.8432-2.5786 4.4924-2.0819 4.7508-8.178 0.50401 0.66735-6.8968 0.85399-8.3175 1.6366-6.611 3.5826-9.4014 0.91511-4.8082 0.7142-6.1504 0.81722-6.1875 0.35023-3.9693 0.81722-3.6191 0.70047-2.4516 0.46698-3.1521 0.70047-3.2689 0.35024-2.6851v-2.2182l1.5177-2.4517 1.2842-1.2842 2.9186-1.7512 2.6851-0.93396 3.9693-0.93396 5.2535-1.7512 5.1368-1.6344 2.2182-1.0507 0.23349-3.3856-0.35024-4.7866 9.966-0.03371m-0.24765 78.589 18.941 0.0727-0.0584-4.9033 0.29187-6.3626 0.29186-4.3196 0.58372-3.6191 1.3426-3.9693 1.576-5.3119 6.2447 11.331 1.4579 6.9174 1.787 6.7193 1.8607 4.8432 2.5786 4.4924 2.0819 4.7508 8.178 0.50401-0.66735-6.8968-0.85399-8.3175-1.6366-6.611-3.5826-9.4014-0.91511-4.8082-0.7142-6.1504-0.81722-6.1875-0.35023-3.9693-0.81722-3.6191-0.70047-2.4516-0.46698-3.1521-0.70047-3.2689-0.35024-2.6851v-2.2182l-1.5177-2.4517-1.2842-1.2842-2.9186-1.7512-2.6851-0.93396-3.9693-0.93396-5.2535-1.7512-5.1368-1.6344-2.2182-1.0507-0.23349-3.3856 0.35024-4.7866-9.966-0.03371"/><g transform="matrix(.13372 0 0 .13372 -10.901 -100.44)"><path d="m87.352 106.67 8.0488 0.1651-0.08255-6.6454-3.4259 0.16511-3.1782 1.8161-1.197 2.1463zm16.758 0-8.0488 0.1651 0.08255-6.6454 3.4259 0.16511 3.1782 1.8161 1.197 2.1463z"/><path d="m87.672 108.28h7.2645l0.49531 0.3302-0.04128 6.4803-0.99062 0.53658c-7.58-0.13126-6.6212-0.0531-7.0994-0.0413l-0.74296-0.78424 0.12382-5.6135zm16.118 0h-7.2645l-0.49531 0.3302 0.04128 6.4803 0.99062 0.53658c7.58-0.13126 6.6212-0.0531 7.0994-0.0413l0.74295-0.78424-0.12382-5.6135z"/><path d="m87.621 116.79h7.2645l0.49531 0.3302-0.04128 6.4803-0.99062 0.53658-7.0994-0.0413-0.74296-0.78424 0.12382-5.6135zm16.221 0h-7.2645l-0.49531 0.3302 0.04128 6.4803 0.99062 0.53658 7.0994-0.0413 0.74296-0.78424-0.12382-5.6135z"/><path d="m87.311 134.08c-0.04127-0.20637-0.86679-3.3846-0.86679-3.3846l0.1651-4.1688 0.66041-1.0732 5.242-0.16511 2.394 0.57786 0.53658 0.70169 0.12382 7.5122m8.5854 0c0.0413-0.20637 0.86679-3.3846 0.86679-3.3846l-0.16511-4.1688-0.66041-1.0732-5.242-0.16511-2.394 0.57786-0.53658 0.70169-0.12382 7.5122"/><path d="m72.742 105.82 0.86518-2.7029 0.86679-8.6679-0.78424-2.1051-1.7336-3.3846-0.78424-2.1463-0.45403-2.7242v-1.2795l-1.197 1.8574-1.6923 1.2795-3.0544 1.4446-3.0544 1.7749-1.7336 1.5685-0.86679 1.651-1.0669 2.2719m60.667 11.163-0.86518-2.7029-0.86679-8.6679 0.78424-2.1051 1.7336-3.3846 0.78424-2.1463 0.45404-2.7242v-1.2795l1.197 1.8574 1.6923 1.2795 3.0544 1.4446 3.0544 1.7749 1.7336 1.5685 0.86679 1.651 1.067 2.2719"/><path d="m70.745 82.699 0.05586-3.1882 1.5272-5.3658 1.6098-2.3114 2.4765-2.2289 0.82552-0.53659-4.3177-0.62414m47.796 14.255-0.0559-3.1882-1.5272-5.3658-1.6098-2.3114-2.4765-2.2289-0.82552-0.53659 4.3177-0.62414"/><path d="m77.446 68.986 2.1876-0.20638 3.3846 0.37148 3.137 0.53658 3.4672 0.82551 2.2702 1.1557 1.651 1.3208 0.53658 1.651 0.99062 4.0037 0.66041 6.1088v6.6041l-0.24766 3.4259-0.66041 1.5685-2.1463 0.94934-4.4578 0.24765-3.5497-0.24765-5.1182-0.90807-2.848-1.651-2.4353-2.2702-0.74296-0.66041m40.491-22.825-2.1876-0.20638-3.3846 0.37148-3.137 0.53658-3.4672 0.82551-2.2702 1.1557-1.651 1.3208-0.53658 1.651-0.99062 4.0037-0.66041 6.1088v6.6041l0.24766 3.4259 0.66041 1.5685 2.1463 0.94934 4.4578 0.24765 3.5497-0.24765 5.1182-0.90807 2.848-1.651 2.4353-2.2702 0.74297-0.66041"/><path d="m76.877 131.05 4.4947 2.4516 2.6268 0.52535s1.2842-0.0584 1.4009-0.35023c0.11674-0.29186 0.17512-2.4516 0.17512-2.6852 0-0.23348-0.58373-3.3856-0.58373-3.6191s-0.35024-6.0708-0.35024-6.0708l0.11674-3.5024 0.35024-6.1875 0.29186-6.5961-0.40861-3.9693-1.6344-1.9847-2.8019-1.0507-0.46698 0.11674-0.46698 2.3349s-1.2258 3.1521-1.2258 3.3856-0.93396 3.6191-0.93396 3.6191l-0.6421 2.9186-0.46698 2.3933-0.72172 1.7524m38.956 16.518-4.4947 2.4516-2.6268 0.52535s-1.2842-0.0584-1.4009-0.35023c-0.11675-0.29186-0.17512-2.4516-0.17512-2.6852 0-0.23348 0.58373-3.3856 0.58373-3.6191s0.35023-6.0708 0.35023-6.0708l-0.11674-3.5024-0.35024-6.1875-0.29186-6.5961 0.40861-3.9693 1.6344-1.9847 2.8019-1.0507 0.46698 0.11674 0.46698 2.3349s1.2258 3.1521 1.2258 3.3856 0.93397 3.6191 0.93397 3.6191l0.64209 2.9186 0.46699 2.3933 0.72171 1.7524"/><path d="m80.262 98.154-1.8096-1.722-3.5899-3.3272m36.337 5.0492 1.8096-1.722 3.5899-3.3272"/><path d="m86.821 55.651 1.8524 3.9241 1.4446 3.7561 0.61914 5.6135-0.70169 1.1144-3.2195-0.28893m17.826-14.119-1.8524 3.9241-1.4446 3.7561-0.61914 5.6135 0.70169 1.1144 3.2195-0.28893"/><path transform="translate(-.49531 -.082551)" d="m57.497 103.38 1.255 5.2827 1.9555 5.3119 0.67128 1.0215 3.6483-3.911s4.7574-6.2751 4.8157-6.4502c0.05837-0.17512 2.1598-5.2244 2.1598-5.2244l0.70047-5.4287s-1.1091-4.3196-1.2258-4.699c-0.11674-0.37942-1.2258-4.5531-1.2258-4.5531m64.705 18.65-1.255 5.2827-1.9555 5.3119-0.67128 1.0215-3.6483-3.911s-4.7574-6.2751-4.8157-6.4502c-0.0584-0.17512-2.1598-5.2244-2.1598-5.2244l-0.70047-5.4287s1.1091-4.3196 1.2258-4.699c0.11674-0.37942 1.2258-4.5531 1.2258-4.5531"/><path transform="translate(-.49531 -.082551)" d="m58.139 106.97c0 0.20431 0.35024 4.0277 0.35024 4.0277l1.9263 4.9909 1.2842 2.3933 0.23349 2.5684-1.1091 3.444-0.87559 1.2258-1.9263 3.2689-3.911 5.1952s-2.9478 4.8157-3.0062 4.9909c-0.05837 0.17512-0.99234 2.4808-1.0799 2.6268-0.08756 0.14593-0.58373 1.1383-0.58373 1.1383m84.872-35.87c0 0.20431-0.35024 4.0277-0.35024 4.0277l-1.9263 4.9909-1.2842 2.3933-0.23349 2.5684 1.1091 3.444 0.87558 1.2258 1.9263 3.2689 3.911 5.1952s2.9478 4.8157 3.0062 4.9909c0.0584 0.17512 0.99233 2.4808 1.0799 2.6268 0.0876 0.14593 0.58373 1.1383 0.58373 1.1383"/><path transform="translate(-.49531 -.082551)" d="m49.704 145.2 1.255-3.2397 2.3057-4.7866 3.0062-4.8158 2.977-4.2028s2.656-4.4363 2.8019-4.5531c0.14593-0.11675 2.51-3.4732 2.51-3.4732l2.189-2.1306m76 27.202-1.255-3.2397-2.3057-4.7866-3.0062-4.8158-2.977-4.2028s-2.656-4.4363-2.8019-4.5531c-0.14593-0.11675-2.51-3.4732-2.51-3.4732l-2.189-2.1306"/></g></g></g></svg>
